<svg width="78" height="78" viewBox="0 0 78 78" fill="none" xmlns="http://www.w3.org/2000/svg">
<g filter="url(#filter0_d)">
<circle cx="39" cy="35" r="35" fill="#4424A7"/>
</g>
<path d="M34.325 52C35.0292 52 35.6 51.4292 35.6 50.725C35.6 50.0208 35.0292 49.45 34.325 49.45C33.6209 49.45 33.05 50.0208 33.05 50.725C33.05 51.4292 33.6209 52 34.325 52Z" stroke="white" stroke-width="6" stroke-linecap="round" stroke-linejoin="round"/>
<path d="M51.325 52C52.0292 52 52.6 51.4292 52.6 50.725C52.6 50.0208 52.0292 49.45 51.325 49.45C50.6209 49.45 50.05 50.0208 50.05 50.725C50.05 51.4292 50.6209 52 51.325 52Z" stroke="white" stroke-width="6" stroke-linecap="round" stroke-linejoin="round"/>
<path d="M22 18H28.1818L32.3236 41.5212C32.465 42.3299 32.852 43.0564 33.4171 43.5734C33.9822 44.0905 34.6893 44.3651 35.4145 44.3493H50.4364C51.1616 44.3651 51.8687 44.0905 52.4338 43.5734C52.9989 43.0564 53.3859 42.3299 53.5273 41.5212L56 26.7831H29.7273" stroke="white" stroke-width="3" stroke-linecap="round" stroke-linejoin="round"/>
<defs>
<filter id="filter0_d" x="0" y="0" width="78" height="78" filterUnits="userSpaceOnUse" color-interpolation-filters="sRGB">
<feFlood flood-opacity="0" result="BackgroundImageFix"/>
<feColorMatrix in="SourceAlpha" type="matrix" values="0 0 0 0 0 0 0 0 0 0 0 0 0 0 0 0 0 0 127 0"/>
<feOffset dy="4"/>
<feGaussianBlur stdDeviation="2"/>
<feColorMatrix type="matrix" values="0 0 0 0 0 0 0 0 0 0 0 0 0 0 0 0 0 0 0.25 0"/>
<feBlend mode="normal" in2="BackgroundImageFix" result="effect1_dropShadow"/>
<feBlend mode="normal" in="SourceGraphic" in2="effect1_dropShadow" result="shape"/>
</filter>
</defs>
</svg>
