<svg width="289" height="246" viewBox="0 0 289 246" fill="none" xmlns="http://www.w3.org/2000/svg">
<path d="M0 20C0 8.9543 8.9543 0 20 0H269C280.046 0 289 8.95431 289 20V175C289 186.046 280.046 195 269 195H216.75H190.967C184.48 195 178.396 198.146 174.647 203.44L152.66 234.48C148.675 240.106 140.325 240.106 136.34 234.48L114.353 203.44C110.604 198.146 104.52 195 98.0326 195H72.25H20C8.9543 195 0 186.046 0 175V20Z" fill="white"/>
<rect x="34" y="32" width="60" height="70" rx="9" fill="#FDF8EF"/>
<path d="M47.9609 94V85.5977H52.6895V86.3184H48.7168V89.4414H51.9336V90.1621H48.7168V93.2793H52.6895V94H47.9609ZM57.1836 94V89.6055C57.1836 89.4609 57.1562 89.3262 57.1016 89.2012C57.0469 89.0723 56.9727 88.9609 56.8789 88.8672C56.7852 88.7734 56.6738 88.6992 56.5449 88.6445C56.4199 88.5898 56.2852 88.5625 56.1406 88.5625H55.6602C55.5156 88.5625 55.3789 88.5898 55.25 88.6445C55.125 88.6992 55.0156 88.7734 54.9219 88.8672C54.8281 88.9609 54.7539 89.0723 54.6992 89.2012C54.6445 89.3262 54.6172 89.4609 54.6172 89.6055V94H53.8965V88H54.1367L54.5293 88.6094C54.6934 88.3867 54.8984 88.2109 55.1445 88.082C55.3945 87.9492 55.666 87.8828 55.959 87.8828H56.1406C56.3828 87.8828 56.6113 87.9297 56.8262 88.0234C57.041 88.1133 57.2285 88.2383 57.3887 88.3984C57.5488 88.5586 57.6738 88.7461 57.7637 88.9609C57.8574 89.1758 57.9043 89.4043 57.9043 89.6465V94H57.1836ZM62.6328 96.4023V93.4961C62.4688 93.6914 62.2715 93.8438 62.041 93.9531C61.8105 94.0625 61.5605 94.1172 61.291 94.1172H61.1094C60.8672 94.1172 60.6387 94.0723 60.4238 93.9824C60.209 93.8887 60.0215 93.7617 59.8613 93.6016C59.7012 93.4414 59.5742 93.2539 59.4805 93.0391C59.3906 92.8242 59.3457 92.5957 59.3457 92.3535V89.6465C59.3457 89.4043 59.3906 89.1758 59.4805 88.9609C59.5742 88.7461 59.7012 88.5586 59.8613 88.3984C60.0215 88.2383 60.209 88.1133 60.4238 88.0234C60.6387 87.9297 60.8672 87.8828 61.1094 87.8828H61.291C61.584 87.8828 61.8535 87.9492 62.0996 88.082C62.3457 88.2109 62.5508 88.3867 62.7148 88.6094L63.1133 88H63.3535V96.4023H62.6328ZM62.6328 89.6055C62.6328 89.4609 62.6055 89.3262 62.5508 89.2012C62.4961 89.0723 62.4219 88.9609 62.3281 88.8672C62.2344 88.7734 62.123 88.6992 61.9941 88.6445C61.8691 88.5898 61.7344 88.5625 61.5898 88.5625H61.1094C60.9648 88.5625 60.8281 88.5898 60.6992 88.6445C60.5742 88.6992 60.4648 88.7734 60.3711 88.8672C60.2773 88.9609 60.2031 89.0723 60.1484 89.2012C60.0938 89.3262 60.0664 89.4609 60.0664 89.6055V92.3945C60.0664 92.5391 60.0938 92.6758 60.1484 92.8047C60.2031 92.9297 60.2773 93.0391 60.3711 93.1328C60.4648 93.2266 60.5742 93.3008 60.6992 93.3555C60.8281 93.4102 60.9648 93.4375 61.1094 93.4375H61.5898C61.7344 93.4375 61.8691 93.4102 61.9941 93.3555C62.123 93.3008 62.2344 93.2266 62.3281 93.1328C62.4219 93.0391 62.4961 92.9297 62.5508 92.8047C62.6055 92.6758 62.6328 92.5391 62.6328 92.3945V89.6055ZM68.5625 94L68.1641 93.3906C68 93.6133 67.7949 93.791 67.5488 93.9238C67.3027 94.0527 67.0332 94.1172 66.7402 94.1172H66.5586C66.3164 94.1172 66.0879 94.0723 65.873 93.9824C65.6582 93.8887 65.4707 93.7617 65.3105 93.6016C65.1504 93.4414 65.0234 93.2539 64.9297 93.0391C64.8398 92.8242 64.7949 92.5957 64.7949 92.3535V88H65.5156V92.3945C65.5156 92.5391 65.543 92.6758 65.5977 92.8047C65.6523 92.9297 65.7266 93.0391 65.8203 93.1328C65.9141 93.2266 66.0234 93.3008 66.1484 93.3555C66.2773 93.4102 66.4141 93.4375 66.5586 93.4375H67.0391C67.1836 93.4375 67.3184 93.4102 67.4434 93.3555C67.5723 93.3008 67.6836 93.2266 67.7773 93.1328C67.8711 93.0391 67.9453 92.9297 68 92.8047C68.0547 92.6758 68.082 92.5391 68.082 92.3945V88H68.8027V94H68.5625ZM70.4258 86.5586V85.5977H71.2637V86.5586H70.4258ZM70.4844 94V88H71.2051V94H70.4844ZM74.6562 88.6855C74.5117 88.6855 74.375 88.7129 74.2461 88.7676C74.1211 88.8223 74.0117 88.8965 73.918 88.9902C73.8242 89.084 73.75 89.1953 73.6953 89.3242C73.6406 89.4492 73.6133 89.584 73.6133 89.7285V94H72.8926V88H73.1328L73.5254 88.6094C73.6895 88.3867 73.8945 88.2109 74.1406 88.082C74.3906 87.9492 74.6621 87.8828 74.9551 87.8828H75.377V88.6855H74.6562ZM77.3105 96.4023H76.6133L77.6797 93.4844L75.7344 88H76.4551L78.0195 92.5469L78.043 92.8574L78.0664 92.5469L79.625 88H80.3457L77.3105 96.4023Z" fill="#9C7021"/>
<rect x="80" y="131" width="130" height="30" rx="9" fill="#EFF1FD"/>
<rect x="105" y="143" width="80" height="6" rx="3" fill="#4424A7"/>
<rect x="114" y="32" width="60" height="70" rx="9" fill="#FFECF2"/>
<path d="M128.689 88.709C128.689 88.9941 128.635 89.2617 128.525 89.5117C128.42 89.7617 128.273 89.9805 128.086 90.168C127.898 90.3555 127.678 90.5039 127.424 90.6133C127.174 90.7188 126.906 90.7715 126.621 90.7715H124.717V94H123.961V85.5977H126.621C126.906 85.5977 127.174 85.6523 127.424 85.7617C127.678 85.8672 127.898 86.0137 128.086 86.2012C128.273 86.3887 128.42 86.6094 128.525 86.8633C128.635 87.1133 128.689 87.3809 128.689 87.666V88.709ZM127.934 87.666C127.934 87.4785 127.898 87.3047 127.828 87.1445C127.758 86.9805 127.66 86.8379 127.535 86.7168C127.414 86.5918 127.271 86.4941 127.107 86.4238C126.947 86.3535 126.773 86.3184 126.586 86.3184H124.717V90.0508H126.586C126.773 90.0508 126.947 90.0156 127.107 89.9453C127.271 89.875 127.414 89.7793 127.535 89.6582C127.66 89.5371 127.758 89.3965 127.828 89.2363C127.898 89.0723 127.934 88.8965 127.934 88.709V87.666ZM131.66 88.6855C131.516 88.6855 131.379 88.7129 131.25 88.7676C131.125 88.8223 131.016 88.8965 130.922 88.9902C130.828 89.084 130.754 89.1953 130.699 89.3242C130.645 89.4492 130.617 89.584 130.617 89.7285V94H129.896V88H130.137L130.529 88.6094C130.693 88.3867 130.898 88.2109 131.145 88.082C131.395 87.9492 131.666 87.8828 131.959 87.8828H132.381V88.6855H131.66ZM137.35 92.3535C137.35 92.5957 137.303 92.8242 137.209 93.0391C137.119 93.2539 136.994 93.4414 136.834 93.6016C136.674 93.7617 136.486 93.8887 136.271 93.9824C136.057 94.0723 135.828 94.1172 135.586 94.1172H135.105C134.863 94.1172 134.635 94.0723 134.42 93.9824C134.205 93.8887 134.018 93.7617 133.857 93.6016C133.697 93.4414 133.57 93.2539 133.477 93.0391C133.387 92.8242 133.342 92.5957 133.342 92.3535V89.6465C133.342 89.4043 133.387 89.1758 133.477 88.9609C133.57 88.7461 133.697 88.5586 133.857 88.3984C134.018 88.2383 134.205 88.1133 134.42 88.0234C134.635 87.9297 134.863 87.8828 135.105 87.8828H135.586C135.828 87.8828 136.057 87.9297 136.271 88.0234C136.486 88.1133 136.674 88.2383 136.834 88.3984C136.994 88.5586 137.119 88.7461 137.209 88.9609C137.303 89.1758 137.35 89.4043 137.35 89.6465V92.3535ZM136.629 89.6055C136.629 89.4609 136.602 89.3262 136.547 89.2012C136.492 89.0723 136.418 88.9609 136.324 88.8672C136.23 88.7734 136.119 88.6992 135.99 88.6445C135.865 88.5898 135.73 88.5625 135.586 88.5625H135.105C134.961 88.5625 134.824 88.5898 134.695 88.6445C134.57 88.6992 134.461 88.7734 134.367 88.8672C134.273 88.9609 134.199 89.0723 134.145 89.2012C134.09 89.3262 134.062 89.4609 134.062 89.6055V92.3945C134.062 92.5391 134.09 92.6758 134.145 92.8047C134.199 92.9297 134.273 93.0391 134.367 93.1328C134.461 93.2266 134.57 93.3008 134.695 93.3555C134.824 93.4102 134.961 93.4375 135.105 93.4375H135.586C135.73 93.4375 135.865 93.4102 135.99 93.3555C136.119 93.3008 136.23 93.2266 136.324 93.1328C136.418 93.0391 136.492 92.9297 136.547 92.8047C136.602 92.6758 136.629 92.5391 136.629 92.3945V89.6055ZM142.559 94L142.16 93.3906C141.996 93.6133 141.791 93.791 141.545 93.9238C141.299 94.0527 141.029 94.1172 140.736 94.1172H140.555C140.312 94.1172 140.084 94.0723 139.869 93.9824C139.654 93.8887 139.467 93.7617 139.307 93.6016C139.146 93.4414 139.02 93.2539 138.926 93.0391C138.836 92.8242 138.791 92.5957 138.791 92.3535V89.6465C138.791 89.4043 138.836 89.1758 138.926 88.9609C139.02 88.7461 139.146 88.5586 139.307 88.3984C139.467 88.2383 139.654 88.1133 139.869 88.0234C140.084 87.9297 140.312 87.8828 140.555 87.8828H140.736C141.006 87.8828 141.256 87.9375 141.486 88.0469C141.717 88.1562 141.914 88.3086 142.078 88.5039V85.5977H142.799V94H142.559ZM142.078 89.6055C142.078 89.4609 142.051 89.3262 141.996 89.2012C141.941 89.0723 141.867 88.9609 141.773 88.8672C141.68 88.7734 141.568 88.6992 141.439 88.6445C141.314 88.5898 141.18 88.5625 141.035 88.5625H140.555C140.41 88.5625 140.273 88.5898 140.145 88.6445C140.02 88.6992 139.91 88.7734 139.816 88.8672C139.723 88.9609 139.648 89.0723 139.594 89.2012C139.539 89.3262 139.512 89.4609 139.512 89.6055V92.3945C139.512 92.5391 139.539 92.6758 139.594 92.8047C139.648 92.9297 139.723 93.0391 139.816 93.1328C139.91 93.2266 140.02 93.3008 140.145 93.3555C140.273 93.4102 140.41 93.4375 140.555 93.4375H141.035C141.18 93.4375 141.314 93.4102 141.439 93.3555C141.568 93.3008 141.68 93.2266 141.773 93.1328C141.867 93.0391 141.941 92.9297 141.996 92.8047C142.051 92.6758 142.078 92.5391 142.078 92.3945V89.6055ZM148.008 94L147.609 93.3906C147.445 93.6133 147.24 93.791 146.994 93.9238C146.748 94.0527 146.479 94.1172 146.186 94.1172H146.004C145.762 94.1172 145.533 94.0723 145.318 93.9824C145.104 93.8887 144.916 93.7617 144.756 93.6016C144.596 93.4414 144.469 93.2539 144.375 93.0391C144.285 92.8242 144.24 92.5957 144.24 92.3535V88H144.961V92.3945C144.961 92.5391 144.988 92.6758 145.043 92.8047C145.098 92.9297 145.172 93.0391 145.266 93.1328C145.359 93.2266 145.469 93.3008 145.594 93.3555C145.723 93.4102 145.859 93.4375 146.004 93.4375H146.484C146.629 93.4375 146.764 93.4102 146.889 93.3555C147.018 93.3008 147.129 93.2266 147.223 93.1328C147.316 93.0391 147.391 92.9297 147.445 92.8047C147.5 92.6758 147.527 92.5391 147.527 92.3945V88H148.248V94H148.008ZM153.697 92.3535C153.697 92.5957 153.65 92.8242 153.557 93.0391C153.467 93.2539 153.342 93.4414 153.182 93.6016C153.021 93.7617 152.834 93.8887 152.619 93.9824C152.404 94.0723 152.176 94.1172 151.934 94.1172H151.453C151.211 94.1172 150.982 94.0723 150.768 93.9824C150.553 93.8887 150.365 93.7617 150.205 93.6016C150.045 93.4414 149.918 93.2539 149.824 93.0391C149.734 92.8242 149.689 92.5957 149.689 92.3535V89.6465C149.689 89.4043 149.734 89.1758 149.824 88.9609C149.918 88.7461 150.045 88.5586 150.205 88.3984C150.365 88.2383 150.553 88.1133 150.768 88.0234C150.982 87.9297 151.211 87.8828 151.453 87.8828H151.934C152.176 87.8828 152.404 87.9297 152.619 88.0234C152.834 88.1133 153.021 88.2383 153.182 88.3984C153.342 88.5586 153.467 88.7461 153.557 88.9609C153.65 89.1758 153.697 89.4043 153.697 89.6465V89.8867L152.977 90.0039V89.6055C152.977 89.4609 152.949 89.3262 152.895 89.2012C152.84 89.0723 152.766 88.9609 152.672 88.8672C152.578 88.7734 152.467 88.6992 152.338 88.6445C152.213 88.5898 152.078 88.5625 151.934 88.5625H151.453C151.309 88.5625 151.172 88.5898 151.043 88.6445C150.918 88.6992 150.809 88.7734 150.715 88.8672C150.621 88.9609 150.547 89.0723 150.492 89.2012C150.438 89.3262 150.41 89.4609 150.41 89.6055V92.3945C150.41 92.5391 150.438 92.6758 150.492 92.8047C150.547 92.9297 150.621 93.0391 150.715 93.1328C150.809 93.2266 150.918 93.3008 151.043 93.3555C151.172 93.4102 151.309 93.4375 151.453 93.4375H151.934C152.078 93.4375 152.213 93.4102 152.338 93.3555C152.467 93.3008 152.578 93.2266 152.672 93.1328C152.766 93.0391 152.84 92.9297 152.895 92.8047C152.949 92.6758 152.977 92.5391 152.977 92.3945V91.9961L153.697 92.1133V92.3535ZM157.324 94C157.105 94 156.898 93.959 156.703 93.877C156.512 93.7949 156.344 93.6816 156.199 93.5371C156.059 93.3926 155.945 93.2246 155.859 93.0332C155.777 92.8418 155.736 92.6367 155.736 92.418V88.6855H154.658V88H155.736V86.5586L156.457 86.4414V88H157.98V88.6855H156.457V92.4531C156.457 92.5742 156.479 92.6875 156.521 92.793C156.568 92.8945 156.631 92.9844 156.709 93.0625C156.787 93.1406 156.879 93.2031 156.984 93.25C157.09 93.293 157.203 93.3145 157.324 93.3145H157.98V94H157.324ZM163.436 92.4766C163.436 92.7188 163.387 92.9414 163.289 93.1445C163.191 93.3438 163.059 93.5156 162.891 93.6602C162.723 93.8047 162.527 93.918 162.305 94C162.086 94.0781 161.855 94.1172 161.613 94.1172H161.133C160.891 94.1172 160.658 94.0723 160.436 93.9824C160.217 93.8887 160.023 93.7617 159.855 93.6016C159.691 93.4414 159.559 93.2539 159.457 93.0391C159.359 92.8242 159.311 92.5957 159.311 92.3535V92.1133L160.031 91.9961V92.3945C160.031 92.5391 160.061 92.6758 160.119 92.8047C160.182 92.9297 160.264 93.0391 160.365 93.1328C160.467 93.2266 160.584 93.3008 160.717 93.3555C160.85 93.4102 160.988 93.4375 161.133 93.4375H161.613C161.758 93.4375 161.896 93.416 162.029 93.373C162.162 93.3301 162.279 93.2695 162.381 93.1914C162.486 93.1094 162.568 93.0117 162.627 92.8984C162.689 92.7852 162.721 92.6562 162.721 92.5117C162.721 92.2969 162.674 92.1211 162.58 91.9844C162.486 91.8477 162.361 91.7344 162.205 91.6445C162.053 91.5508 161.877 91.4746 161.678 91.416C161.482 91.3535 161.281 91.293 161.074 91.2344C160.867 91.1719 160.664 91.1016 160.465 91.0234C160.27 90.9453 160.094 90.8438 159.938 90.7188C159.785 90.5898 159.662 90.4297 159.568 90.2383C159.475 90.0469 159.428 89.8086 159.428 89.5234C159.428 89.2812 159.475 89.0605 159.568 88.8613C159.662 88.6582 159.789 88.4844 159.949 88.3398C160.109 88.1953 160.295 88.084 160.506 88.0059C160.721 87.9238 160.949 87.8828 161.191 87.8828H161.613C161.855 87.8828 162.084 87.9297 162.299 88.0234C162.514 88.1133 162.701 88.2383 162.861 88.3984C163.021 88.5586 163.146 88.7461 163.236 88.9609C163.33 89.1758 163.377 89.4043 163.377 89.6465V89.6699L162.656 89.7871V89.6055C162.656 89.4609 162.629 89.3262 162.574 89.2012C162.52 89.0723 162.445 88.9609 162.352 88.8672C162.258 88.7734 162.146 88.6992 162.018 88.6445C161.893 88.5898 161.758 88.5625 161.613 88.5625H161.191C161.047 88.5625 160.91 88.584 160.781 88.627C160.656 88.6699 160.547 88.7324 160.453 88.8145C160.359 88.8926 160.285 88.9883 160.23 89.1016C160.176 89.2148 160.148 89.3438 160.148 89.4883C160.148 89.6953 160.195 89.8652 160.289 89.998C160.383 90.127 160.506 90.2363 160.658 90.3262C160.814 90.416 160.99 90.4922 161.186 90.5547C161.385 90.6133 161.586 90.6758 161.789 90.7422C161.996 90.8047 162.197 90.877 162.393 90.959C162.592 91.041 162.768 91.1465 162.92 91.2754C163.076 91.4043 163.201 91.5664 163.295 91.7617C163.389 91.9531 163.436 92.1914 163.436 92.4766Z" fill="#FFA2C0"/>
<rect x="194" y="32" width="60" height="70" rx="9" fill="#E5F7F8"/>
<path d="M210.689 91.9375C210.689 92.2227 210.635 92.4902 210.525 92.7402C210.42 92.9902 210.273 93.209 210.086 93.3965C209.898 93.584 209.678 93.7324 209.424 93.8418C209.174 93.9473 208.906 94 208.621 94H205.961V85.5977H208.621C208.906 85.5977 209.174 85.6523 209.424 85.7617C209.678 85.8672 209.898 86.0137 210.086 86.2012C210.273 86.3887 210.42 86.6094 210.525 86.8633C210.635 87.1133 210.689 87.3809 210.689 87.666V87.748C210.689 87.9473 210.662 88.1387 210.607 88.3223C210.557 88.502 210.482 88.6699 210.385 88.8262C210.287 88.9824 210.172 89.125 210.039 89.2539C209.906 89.3789 209.758 89.4844 209.594 89.5703C209.758 89.6562 209.906 89.7637 210.039 89.8926C210.172 90.0176 210.287 90.1602 210.385 90.3203C210.482 90.4766 210.557 90.6465 210.607 90.8301C210.662 91.0098 210.689 91.1992 210.689 91.3984V91.9375ZM209.934 91.2754C209.934 91.0879 209.898 90.9141 209.828 90.7539C209.758 90.5898 209.66 90.4473 209.535 90.3262C209.414 90.2051 209.271 90.1094 209.107 90.0391C208.947 89.9688 208.773 89.9336 208.586 89.9336H206.717V93.2793H208.586C208.773 93.2793 208.947 93.2441 209.107 93.1738C209.271 93.1035 209.414 93.0078 209.535 92.8867C209.66 92.7656 209.758 92.625 209.828 92.4648C209.898 92.3008 209.934 92.125 209.934 91.9375V91.2754ZM209.934 87.666C209.934 87.4785 209.898 87.3047 209.828 87.1445C209.758 86.9805 209.66 86.8379 209.535 86.7168C209.414 86.5918 209.271 86.4941 209.107 86.4238C208.947 86.3535 208.773 86.3184 208.586 86.3184H206.717V89.2129H208.586C208.773 89.2129 208.947 89.1777 209.107 89.1074C209.271 89.0371 209.414 88.9414 209.535 88.8203C209.66 88.6953 209.758 88.5527 209.828 88.3926C209.898 88.2285 209.934 88.0527 209.934 87.8652V87.666ZM215.904 92.3535C215.904 92.5957 215.857 92.8242 215.764 93.0391C215.674 93.2539 215.549 93.4414 215.389 93.6016C215.229 93.7617 215.041 93.8887 214.826 93.9824C214.611 94.0723 214.383 94.1172 214.141 94.1172H213.66C213.418 94.1172 213.189 94.0723 212.975 93.9824C212.76 93.8887 212.572 93.7617 212.412 93.6016C212.252 93.4414 212.125 93.2539 212.031 93.0391C211.941 92.8242 211.896 92.5957 211.896 92.3535V89.6465C211.896 89.4043 211.941 89.1758 212.031 88.9609C212.125 88.7461 212.252 88.5586 212.412 88.3984C212.572 88.2383 212.76 88.1133 212.975 88.0234C213.189 87.9297 213.418 87.8828 213.66 87.8828H214.141C214.383 87.8828 214.611 87.9297 214.826 88.0234C215.041 88.1133 215.229 88.2383 215.389 88.3984C215.549 88.5586 215.674 88.7461 215.764 88.9609C215.857 89.1758 215.904 89.4043 215.904 89.6465V92.3535ZM215.184 89.6055C215.184 89.4609 215.156 89.3262 215.102 89.2012C215.047 89.0723 214.973 88.9609 214.879 88.8672C214.785 88.7734 214.674 88.6992 214.545 88.6445C214.42 88.5898 214.285 88.5625 214.141 88.5625H213.66C213.516 88.5625 213.379 88.5898 213.25 88.6445C213.125 88.6992 213.016 88.7734 212.922 88.8672C212.828 88.9609 212.754 89.0723 212.699 89.2012C212.645 89.3262 212.617 89.4609 212.617 89.6055V92.3945C212.617 92.5391 212.645 92.6758 212.699 92.8047C212.754 92.9297 212.828 93.0391 212.922 93.1328C213.016 93.2266 213.125 93.3008 213.25 93.3555C213.379 93.4102 213.516 93.4375 213.66 93.4375H214.141C214.285 93.4375 214.42 93.4102 214.545 93.3555C214.674 93.3008 214.785 93.2266 214.879 93.1328C214.973 93.0391 215.047 92.9297 215.102 92.8047C215.156 92.6758 215.184 92.5391 215.184 92.3945V89.6055ZM221.354 92.3535C221.354 92.5957 221.307 92.8242 221.213 93.0391C221.123 93.2539 220.998 93.4414 220.838 93.6016C220.678 93.7617 220.49 93.8887 220.275 93.9824C220.061 94.0723 219.832 94.1172 219.59 94.1172H219.109C218.867 94.1172 218.639 94.0723 218.424 93.9824C218.209 93.8887 218.021 93.7617 217.861 93.6016C217.701 93.4414 217.574 93.2539 217.48 93.0391C217.391 92.8242 217.346 92.5957 217.346 92.3535V89.6465C217.346 89.4043 217.391 89.1758 217.48 88.9609C217.574 88.7461 217.701 88.5586 217.861 88.3984C218.021 88.2383 218.209 88.1133 218.424 88.0234C218.639 87.9297 218.867 87.8828 219.109 87.8828H219.59C219.832 87.8828 220.061 87.9297 220.275 88.0234C220.49 88.1133 220.678 88.2383 220.838 88.3984C220.998 88.5586 221.123 88.7461 221.213 88.9609C221.307 89.1758 221.354 89.4043 221.354 89.6465V92.3535ZM220.633 89.6055C220.633 89.4609 220.605 89.3262 220.551 89.2012C220.496 89.0723 220.422 88.9609 220.328 88.8672C220.234 88.7734 220.123 88.6992 219.994 88.6445C219.869 88.5898 219.734 88.5625 219.59 88.5625H219.109C218.965 88.5625 218.828 88.5898 218.699 88.6445C218.574 88.6992 218.465 88.7734 218.371 88.8672C218.277 88.9609 218.203 89.0723 218.148 89.2012C218.094 89.3262 218.066 89.4609 218.066 89.6055V92.3945C218.066 92.5391 218.094 92.6758 218.148 92.8047C218.203 92.9297 218.277 93.0391 218.371 93.1328C218.465 93.2266 218.574 93.3008 218.699 93.3555C218.828 93.4102 218.965 93.4375 219.109 93.4375H219.59C219.734 93.4375 219.869 93.4102 219.994 93.3555C220.123 93.3008 220.234 93.2266 220.328 93.1328C220.422 93.0391 220.496 92.9297 220.551 92.8047C220.605 92.6758 220.633 92.5391 220.633 92.3945V89.6055ZM226.346 94L223.896 91L226.346 88H227.283L224.775 91L227.283 94H226.346ZM223.035 94V85.5977H223.756V94H223.035ZM228.426 86.5586V85.5977H229.264V86.5586H228.426ZM228.484 94V88H229.205V94H228.484ZM234.18 94V89.6055C234.18 89.4609 234.152 89.3262 234.098 89.2012C234.043 89.0723 233.969 88.9609 233.875 88.8672C233.781 88.7734 233.67 88.6992 233.541 88.6445C233.416 88.5898 233.281 88.5625 233.137 88.5625H232.656C232.512 88.5625 232.375 88.5898 232.246 88.6445C232.121 88.6992 232.012 88.7734 231.918 88.8672C231.824 88.9609 231.75 89.0723 231.695 89.2012C231.641 89.3262 231.613 89.4609 231.613 89.6055V94H230.893V88H231.133L231.525 88.6094C231.689 88.3867 231.895 88.2109 232.141 88.082C232.391 87.9492 232.662 87.8828 232.955 87.8828H233.137C233.379 87.8828 233.607 87.9297 233.822 88.0234C234.037 88.1133 234.225 88.2383 234.385 88.3984C234.545 88.5586 234.67 88.7461 234.76 88.9609C234.854 89.1758 234.9 89.4043 234.9 89.6465V94H234.18ZM240.408 94.7559C240.408 94.998 240.361 95.2207 240.268 95.4238C240.178 95.627 240.053 95.8008 239.893 95.9453C239.732 96.0898 239.545 96.2012 239.33 96.2793C239.115 96.3613 238.887 96.4023 238.645 96.4023H238.346C238.104 96.4023 237.875 96.3613 237.66 96.2793C237.445 96.2012 237.258 96.0898 237.098 95.9453C236.938 95.8008 236.811 95.627 236.717 95.4238C236.627 95.2207 236.582 94.998 236.582 94.7559V94.7324C236.582 94.498 236.625 94.2832 236.711 94.0879C236.797 93.8926 236.914 93.7227 237.062 93.5781C236.875 93.4648 236.725 93.3125 236.611 93.1211C236.502 92.9258 236.447 92.7109 236.447 92.4766C236.447 92.2656 236.492 92.0703 236.582 91.8906C236.672 91.707 236.795 91.5586 236.951 91.4453C236.764 91.2812 236.615 91.084 236.506 90.8535C236.396 90.623 236.342 90.3711 236.342 90.0977V89.6465C236.342 89.4043 236.387 89.1758 236.477 88.9609C236.57 88.7461 236.697 88.5586 236.857 88.3984C237.018 88.2383 237.205 88.1133 237.42 88.0234C237.635 87.9297 237.863 87.8828 238.105 87.8828H238.404C238.697 87.8828 238.967 87.9492 239.213 88.082C239.463 88.2109 239.67 88.3867 239.834 88.6094L240.227 88H240.467V90.0977C240.467 90.3398 240.42 90.5684 240.326 90.7832C240.236 90.998 240.111 91.1855 239.951 91.3457C239.791 91.5059 239.604 91.6328 239.389 91.7266C239.174 91.8164 238.945 91.8613 238.703 91.8613H237.66C237.578 91.8613 237.5 91.8789 237.426 91.9141C237.352 91.9453 237.285 91.9883 237.227 92.043C237.172 92.0977 237.129 92.1641 237.098 92.2422C237.066 92.3164 237.051 92.3945 237.051 92.4766C237.051 92.5586 237.066 92.6367 237.098 92.7109C237.129 92.7852 237.172 92.8516 237.227 92.9102C237.285 92.9648 237.352 93.0078 237.426 93.0391C237.5 93.0703 237.578 93.0859 237.66 93.0859H238.645C238.887 93.0859 239.115 93.127 239.33 93.209C239.545 93.2871 239.732 93.3984 239.893 93.543C240.053 93.6875 240.178 93.8613 240.268 94.0645C240.361 94.2676 240.408 94.4902 240.408 94.7324V94.7559ZM239.752 89.6055C239.752 89.4609 239.725 89.3262 239.67 89.2012C239.615 89.0723 239.539 88.9609 239.441 88.8672C239.348 88.7734 239.236 88.6992 239.107 88.6445C238.982 88.5898 238.848 88.5625 238.703 88.5625H238.105C237.961 88.5625 237.824 88.5898 237.695 88.6445C237.57 88.6992 237.461 88.7734 237.367 88.8672C237.273 88.9609 237.199 89.0723 237.145 89.2012C237.09 89.3262 237.062 89.4609 237.062 89.6055V90.1387C237.062 90.2832 237.09 90.4199 237.145 90.5488C237.199 90.6738 237.273 90.7832 237.367 90.877C237.461 90.9707 237.57 91.0449 237.695 91.0996C237.824 91.1543 237.961 91.1816 238.105 91.1816H238.703C238.848 91.1816 238.982 91.1543 239.107 91.0996C239.236 91.0449 239.348 90.9707 239.441 90.877C239.539 90.7832 239.615 90.6738 239.67 90.5488C239.725 90.4199 239.752 90.2832 239.752 90.1387V89.6055ZM239.723 94.6973C239.723 94.5527 239.695 94.4219 239.641 94.3047C239.586 94.1914 239.512 94.0957 239.418 94.0176C239.324 93.9395 239.213 93.8789 239.084 93.8359C238.959 93.793 238.824 93.7715 238.68 93.7715H238.311C238.166 93.7715 238.029 93.793 237.9 93.8359C237.775 93.8789 237.666 93.9395 237.572 94.0176C237.479 94.0957 237.404 94.1914 237.35 94.3047C237.295 94.4219 237.268 94.5527 237.268 94.6973V94.791C237.268 94.9355 237.295 95.0645 237.35 95.1777C237.404 95.291 237.479 95.3867 237.572 95.4648C237.666 95.5469 237.775 95.6094 237.9 95.6523C238.029 95.6953 238.166 95.7168 238.311 95.7168H238.68C238.824 95.7168 238.959 95.6953 239.084 95.6523C239.213 95.6094 239.324 95.5469 239.418 95.4648C239.512 95.3867 239.586 95.291 239.641 95.1777C239.695 95.0645 239.723 94.9355 239.723 94.791V94.6973Z" fill="#7FD6DC"/>
<path d="M153 62.9979V54.9979C153 54.6472 152.907 54.3028 152.732 53.9991C152.556 53.6955 152.304 53.4433 152 53.2679L145 49.2679C144.696 49.0924 144.351 49 144 49C143.649 49 143.304 49.0924 143 49.2679L136 53.2679C135.696 53.4433 135.444 53.6955 135.268 53.9991C135.093 54.3028 135 54.6472 135 54.9979V62.9979C135 63.3487 135.093 63.6931 135.268 63.9968C135.444 64.3004 135.696 64.5526 136 64.7279L143 68.7279C143.304 68.9035 143.649 68.9959 144 68.9959C144.351 68.9959 144.696 68.9035 145 68.7279L152 64.7279C152.304 64.5526 152.556 64.3004 152.732 63.9968C152.907 63.6931 153 63.3487 153 62.9979Z" stroke="#C84971" stroke-width="2" stroke-linecap="round" stroke-linejoin="round"/>
<path d="M135.27 53.9579L144 59.0079L152.73 53.9579" stroke="#C84971" stroke-width="2" stroke-linecap="round" stroke-linejoin="round"/>
<path d="M144 69.0779V58.9979" stroke="#C84971" stroke-width="2" stroke-linecap="round" stroke-linejoin="round"/>
<path d="M73 60.5C73.0034 61.8199 72.6951 63.1219 72.1 64.3C71.3944 65.7118 70.3098 66.8992 68.9674 67.7293C67.6251 68.5594 66.0782 68.9994 64.5 69C63.1801 69.0035 61.8781 68.6951 60.7 68.1L55 70L56.9 64.3C56.3049 63.1219 55.9966 61.8199 56 60.5C56.0006 58.9218 56.4406 57.3749 57.2707 56.0326C58.1008 54.6903 59.2883 53.6056 60.7 52.9C61.8781 52.305 63.1801 51.9966 64.5 52H65C67.0843 52.115 69.053 52.9948 70.5291 54.4709C72.0052 55.947 72.885 57.9157 73 60V60.5Z" stroke="#936D2A" stroke-width="2" stroke-linecap="round" stroke-linejoin="round"/>
<path d="M230 59V65C230 65.5304 229.789 66.0391 229.414 66.4142C229.039 66.7893 228.53 67 228 67H217C216.47 67 215.961 66.7893 215.586 66.4142C215.211 66.0391 215 65.5304 215 65V54C215 53.4696 215.211 52.9609 215.586 52.5858C215.961 52.2107 216.47 52 217 52H223" stroke="#2ACCD5" stroke-width="2" stroke-linecap="round" stroke-linejoin="round"/>
<path d="M227 49H233V55" stroke="#2ACCD5" stroke-width="2" stroke-linecap="round" stroke-linejoin="round"/>
<path d="M222 60L233 49" stroke="#2ACCD5" stroke-width="2" stroke-linecap="round" stroke-linejoin="round"/>
</svg>
