<svg width="289" height="246" viewBox="0 0 289 246" fill="none" xmlns="http://www.w3.org/2000/svg">
<path d="M0 20C0 8.9543 8.9543 0 20 0H269C280.046 0 289 8.95431 289 20V175C289 186.046 280.046 195 269 195H216.75H190.967C184.48 195 178.396 198.146 174.647 203.44L152.66 234.48C148.675 240.106 140.325 240.106 136.34 234.48L114.353 203.44C110.604 198.146 104.52 195 98.0326 195H72.25H20C8.9543 195 0 186.046 0 175V20Z" fill="white"/>
<rect x="34" y="32" width="60" height="70" rx="9" fill="#FDF8EF"/>
<path d="M56.5664 92.0547C56.5664 92.3398 56.5078 92.6074 56.3906 92.8574C56.2773 93.1074 56.123 93.3262 55.9277 93.5137C55.7363 93.7012 55.5117 93.8496 55.2539 93.959C55 94.0645 54.7305 94.1172 54.4453 94.1172H53.8418C53.5566 94.1172 53.2852 94.0645 53.0273 93.959C52.7734 93.8496 52.5488 93.7012 52.3535 93.5137C52.1621 93.3262 52.0078 93.1074 51.8906 92.8574C51.7773 92.6074 51.7207 92.3398 51.7207 92.0547V91.7207L52.4766 91.5977V92.0547C52.4766 92.2422 52.5137 92.418 52.5879 92.582C52.666 92.7422 52.7695 92.8848 52.8984 93.0098C53.0273 93.1309 53.1758 93.2266 53.3438 93.2969C53.5156 93.3672 53.6953 93.4023 53.8828 93.4023H54.4102C54.5977 93.4023 54.7754 93.3672 54.9434 93.2969C55.1113 93.2266 55.2598 93.1309 55.3887 93.0098C55.5176 92.8848 55.6191 92.7422 55.6934 92.582C55.7715 92.418 55.8105 92.2422 55.8105 92.0547V91.8027C55.8105 91.5137 55.7539 91.2734 55.6406 91.082C55.5273 90.8906 55.377 90.7285 55.1895 90.5957C55.002 90.459 54.7891 90.3438 54.5508 90.25C54.3164 90.1562 54.0742 90.0625 53.8242 89.9688C53.5742 89.875 53.3301 89.7715 53.0918 89.6582C52.8574 89.5449 52.6465 89.4043 52.459 89.2363C52.2715 89.0645 52.1211 88.8555 52.0078 88.6094C51.8945 88.3633 51.8379 88.0605 51.8379 87.7012V87.543C51.8379 87.2578 51.8906 86.9902 51.9961 86.7402C52.1055 86.4902 52.2539 86.2715 52.4414 86.084C52.6289 85.8965 52.8477 85.75 53.0977 85.6445C53.3516 85.5352 53.6211 85.4805 53.9062 85.4805H54.4453C54.7305 85.4805 54.998 85.5352 55.248 85.6445C55.498 85.75 55.7168 85.8965 55.9043 86.084C56.0918 86.2715 56.2383 86.4902 56.3438 86.7402C56.4531 86.9902 56.5078 87.2578 56.5078 87.543V87.7598L55.752 87.8828V87.543C55.752 87.3555 55.7168 87.1816 55.6465 87.0215C55.5762 86.8574 55.4805 86.7148 55.3594 86.5938C55.2383 86.4727 55.0957 86.377 54.9316 86.3066C54.7715 86.2363 54.5977 86.2012 54.4102 86.2012H53.9414C53.7539 86.2012 53.5781 86.2363 53.4141 86.3066C53.2539 86.377 53.1113 86.4727 52.9863 86.5938C52.8652 86.7148 52.7695 86.8574 52.6992 87.0215C52.6289 87.1816 52.5938 87.3555 52.5938 87.543V87.7012C52.5938 87.9707 52.6504 88.1973 52.7637 88.3809C52.877 88.5645 53.0273 88.7227 53.2148 88.8555C53.4023 88.9844 53.6133 89.0977 53.8477 89.1953C54.0859 89.2891 54.3301 89.3867 54.5801 89.4883C54.8301 89.5859 55.0723 89.6953 55.3066 89.8164C55.5449 89.9336 55.7578 90.0801 55.9453 90.2559C56.1328 90.4277 56.2832 90.6387 56.3965 90.8887C56.5098 91.1387 56.5664 91.4434 56.5664 91.8027V92.0547ZM61.9629 92.3535C61.9629 92.5957 61.916 92.8242 61.8223 93.0391C61.7324 93.2539 61.6074 93.4414 61.4473 93.6016C61.2871 93.7617 61.0996 93.8887 60.8848 93.9824C60.6699 94.0723 60.4414 94.1172 60.1992 94.1172H59.7188C59.4766 94.1172 59.248 94.0723 59.0332 93.9824C58.8184 93.8887 58.6309 93.7617 58.4707 93.6016C58.3105 93.4414 58.1836 93.2539 58.0898 93.0391C58 92.8242 57.9551 92.5957 57.9551 92.3535V89.6465C57.9551 89.4043 58 89.1758 58.0898 88.9609C58.1836 88.7461 58.3105 88.5586 58.4707 88.3984C58.6309 88.2383 58.8184 88.1133 59.0332 88.0234C59.248 87.9297 59.4766 87.8828 59.7188 87.8828H60.1992C60.4414 87.8828 60.6699 87.9297 60.8848 88.0234C61.0996 88.1133 61.2871 88.2383 61.4473 88.3984C61.6074 88.5586 61.7324 88.7461 61.8223 88.9609C61.916 89.1758 61.9629 89.4043 61.9629 89.6465V91.0586H58.6758V92.3945C58.6758 92.5391 58.7031 92.6758 58.7578 92.8047C58.8125 92.9297 58.8867 93.0391 58.9805 93.1328C59.0742 93.2266 59.1836 93.3008 59.3086 93.3555C59.4375 93.4102 59.5742 93.4375 59.7188 93.4375H60.1992C60.3438 93.4375 60.4785 93.4102 60.6035 93.3555C60.7324 93.3008 60.8438 93.2266 60.9375 93.1328C61.0312 93.0391 61.1055 92.9297 61.1602 92.8047C61.2148 92.6758 61.2422 92.5391 61.2422 92.3945V91.9961L61.9629 92.1133V92.3535ZM61.2422 89.6055C61.2422 89.4609 61.2148 89.3262 61.1602 89.2012C61.1055 89.0723 61.0312 88.9609 60.9375 88.8672C60.8438 88.7734 60.7324 88.6992 60.6035 88.6445C60.4785 88.5898 60.3438 88.5625 60.1992 88.5625H59.7188C59.5742 88.5625 59.4375 88.5898 59.3086 88.6445C59.1836 88.6992 59.0742 88.7734 58.9805 88.8672C58.8867 88.9609 58.8125 89.0723 58.7578 89.2012C58.7031 89.3262 58.6758 89.4609 58.6758 89.6055V90.4961H61.2422V89.6055ZM63.6445 94V85.5977H64.3652V94H63.6445ZM66.293 94V85.5977H67.0137V94H66.293ZM72.709 92.3535C72.709 92.5957 72.6621 92.8242 72.5684 93.0391C72.4785 93.2539 72.3535 93.4414 72.1934 93.6016C72.0332 93.7617 71.8457 93.8887 71.6309 93.9824C71.416 94.0723 71.1875 94.1172 70.9453 94.1172H70.4648C70.2227 94.1172 69.9941 94.0723 69.7793 93.9824C69.5645 93.8887 69.377 93.7617 69.2168 93.6016C69.0566 93.4414 68.9297 93.2539 68.8359 93.0391C68.7461 92.8242 68.7012 92.5957 68.7012 92.3535V89.6465C68.7012 89.4043 68.7461 89.1758 68.8359 88.9609C68.9297 88.7461 69.0566 88.5586 69.2168 88.3984C69.377 88.2383 69.5645 88.1133 69.7793 88.0234C69.9941 87.9297 70.2227 87.8828 70.4648 87.8828H70.9453C71.1875 87.8828 71.416 87.9297 71.6309 88.0234C71.8457 88.1133 72.0332 88.2383 72.1934 88.3984C72.3535 88.5586 72.4785 88.7461 72.5684 88.9609C72.6621 89.1758 72.709 89.4043 72.709 89.6465V91.0586H69.4219V92.3945C69.4219 92.5391 69.4492 92.6758 69.5039 92.8047C69.5586 92.9297 69.6328 93.0391 69.7266 93.1328C69.8203 93.2266 69.9297 93.3008 70.0547 93.3555C70.1836 93.4102 70.3203 93.4375 70.4648 93.4375H70.9453C71.0898 93.4375 71.2246 93.4102 71.3496 93.3555C71.4785 93.3008 71.5898 93.2266 71.6836 93.1328C71.7773 93.0391 71.8516 92.9297 71.9062 92.8047C71.9609 92.6758 71.9883 92.5391 71.9883 92.3945V91.9961L72.709 92.1133V92.3535ZM71.9883 89.6055C71.9883 89.4609 71.9609 89.3262 71.9062 89.2012C71.8516 89.0723 71.7773 88.9609 71.6836 88.8672C71.5898 88.7734 71.4785 88.6992 71.3496 88.6445C71.2246 88.5898 71.0898 88.5625 70.9453 88.5625H70.4648C70.3203 88.5625 70.1836 88.5898 70.0547 88.6445C69.9297 88.6992 69.8203 88.7734 69.7266 88.8672C69.6328 88.9609 69.5586 89.0723 69.5039 89.2012C69.4492 89.3262 69.4219 89.4609 69.4219 89.6055V90.4961H71.9883V89.6055ZM75.9141 88.6855C75.7695 88.6855 75.6328 88.7129 75.5039 88.7676C75.3789 88.8223 75.2695 88.8965 75.1758 88.9902C75.082 89.084 75.0078 89.1953 74.9531 89.3242C74.8984 89.4492 74.8711 89.584 74.8711 89.7285V94H74.1504V88H74.3906L74.7832 88.6094C74.9473 88.3867 75.1523 88.2109 75.3984 88.082C75.6484 87.9492 75.9199 87.8828 76.2129 87.8828H76.6348V88.6855H75.9141Z" fill="#9C7021"/>
<rect x="80" y="131" width="130" height="30" rx="9" fill="#EFF1FD"/>
<rect x="105" y="143" width="80" height="6" rx="3" fill="#4424A7"/>
<rect x="114" y="32" width="60" height="70" rx="9" fill="#FFECF2"/>
<path d="M128.135 94V88.2402L128.082 88.5977L126.131 94H125.732L123.764 88.5977L123.717 88.2402V94H122.961V85.5977H123.354L125.902 92.4883L125.926 92.7988L125.949 92.4883L128.492 85.5977H128.891V94H128.135ZM134.463 92.3535C134.463 92.5957 134.416 92.8242 134.322 93.0391C134.232 93.2539 134.107 93.4414 133.947 93.6016C133.787 93.7617 133.6 93.8887 133.385 93.9824C133.17 94.0723 132.941 94.1172 132.699 94.1172H132.219C131.977 94.1172 131.748 94.0723 131.533 93.9824C131.318 93.8887 131.131 93.7617 130.971 93.6016C130.811 93.4414 130.684 93.2539 130.59 93.0391C130.5 92.8242 130.455 92.5957 130.455 92.3535V89.6465C130.455 89.4043 130.5 89.1758 130.59 88.9609C130.684 88.7461 130.811 88.5586 130.971 88.3984C131.131 88.2383 131.318 88.1133 131.533 88.0234C131.748 87.9297 131.977 87.8828 132.219 87.8828H132.699C132.941 87.8828 133.17 87.9297 133.385 88.0234C133.6 88.1133 133.787 88.2383 133.947 88.3984C134.107 88.5586 134.232 88.7461 134.322 88.9609C134.416 89.1758 134.463 89.4043 134.463 89.6465V91.0586H131.176V92.3945C131.176 92.5391 131.203 92.6758 131.258 92.8047C131.312 92.9297 131.387 93.0391 131.48 93.1328C131.574 93.2266 131.684 93.3008 131.809 93.3555C131.938 93.4102 132.074 93.4375 132.219 93.4375H132.699C132.844 93.4375 132.979 93.4102 133.104 93.3555C133.232 93.3008 133.344 93.2266 133.438 93.1328C133.531 93.0391 133.605 92.9297 133.66 92.8047C133.715 92.6758 133.742 92.5391 133.742 92.3945V91.9961L134.463 92.1133V92.3535ZM133.742 89.6055C133.742 89.4609 133.715 89.3262 133.66 89.2012C133.605 89.0723 133.531 88.9609 133.438 88.8672C133.344 88.7734 133.232 88.6992 133.104 88.6445C132.979 88.5898 132.844 88.5625 132.699 88.5625H132.219C132.074 88.5625 131.938 88.5898 131.809 88.6445C131.684 88.6992 131.574 88.7734 131.48 88.8672C131.387 88.9609 131.312 89.0723 131.258 89.2012C131.203 89.3262 131.176 89.4609 131.176 89.6055V90.4961H133.742V89.6055ZM137.668 88.6855C137.523 88.6855 137.387 88.7129 137.258 88.7676C137.133 88.8223 137.023 88.8965 136.93 88.9902C136.836 89.084 136.762 89.1953 136.707 89.3242C136.652 89.4492 136.625 89.584 136.625 89.7285V94H135.904V88H136.145L136.537 88.6094C136.701 88.3867 136.906 88.2109 137.152 88.082C137.402 87.9492 137.674 87.8828 137.967 87.8828H138.389V88.6855H137.668ZM143.357 92.3535C143.357 92.5957 143.311 92.8242 143.217 93.0391C143.127 93.2539 143.002 93.4414 142.842 93.6016C142.682 93.7617 142.494 93.8887 142.279 93.9824C142.064 94.0723 141.836 94.1172 141.594 94.1172H141.113C140.871 94.1172 140.643 94.0723 140.428 93.9824C140.213 93.8887 140.025 93.7617 139.865 93.6016C139.705 93.4414 139.578 93.2539 139.484 93.0391C139.395 92.8242 139.35 92.5957 139.35 92.3535V89.6465C139.35 89.4043 139.395 89.1758 139.484 88.9609C139.578 88.7461 139.705 88.5586 139.865 88.3984C140.025 88.2383 140.213 88.1133 140.428 88.0234C140.643 87.9297 140.871 87.8828 141.113 87.8828H141.594C141.836 87.8828 142.064 87.9297 142.279 88.0234C142.494 88.1133 142.682 88.2383 142.842 88.3984C143.002 88.5586 143.127 88.7461 143.217 88.9609C143.311 89.1758 143.357 89.4043 143.357 89.6465V89.8867L142.637 90.0039V89.6055C142.637 89.4609 142.609 89.3262 142.555 89.2012C142.5 89.0723 142.426 88.9609 142.332 88.8672C142.238 88.7734 142.127 88.6992 141.998 88.6445C141.873 88.5898 141.738 88.5625 141.594 88.5625H141.113C140.969 88.5625 140.832 88.5898 140.703 88.6445C140.578 88.6992 140.469 88.7734 140.375 88.8672C140.281 88.9609 140.207 89.0723 140.152 89.2012C140.098 89.3262 140.07 89.4609 140.07 89.6055V92.3945C140.07 92.5391 140.098 92.6758 140.152 92.8047C140.207 92.9297 140.281 93.0391 140.375 93.1328C140.469 93.2266 140.578 93.3008 140.703 93.3555C140.832 93.4102 140.969 93.4375 141.113 93.4375H141.594C141.738 93.4375 141.873 93.4102 141.998 93.3555C142.127 93.3008 142.238 93.2266 142.332 93.1328C142.426 93.0391 142.5 92.9297 142.555 92.8047C142.609 92.6758 142.637 92.5391 142.637 92.3945V91.9961L143.357 92.1133V92.3535ZM148.086 94V89.6055C148.086 89.4609 148.059 89.3262 148.004 89.2012C147.949 89.0723 147.875 88.9609 147.781 88.8672C147.688 88.7734 147.576 88.6992 147.447 88.6445C147.322 88.5898 147.188 88.5625 147.043 88.5625H146.562C146.418 88.5625 146.281 88.5898 146.152 88.6445C146.027 88.6992 145.918 88.7734 145.824 88.8672C145.73 88.9609 145.656 89.0723 145.602 89.2012C145.547 89.3262 145.52 89.4609 145.52 89.6055V94H144.799V85.5977H145.52V88.5039C145.684 88.3086 145.881 88.1562 146.111 88.0469C146.342 87.9375 146.592 87.8828 146.861 87.8828H147.043C147.285 87.8828 147.514 87.9297 147.729 88.0234C147.943 88.1133 148.131 88.2383 148.291 88.3984C148.451 88.5586 148.576 88.7461 148.666 88.9609C148.76 89.1758 148.807 89.4043 148.807 89.6465V94H148.086ZM154.016 94L153.617 93.4023C153.453 93.6172 153.248 93.791 153.002 93.9238C152.756 94.0527 152.486 94.1172 152.193 94.1172H152.012C151.77 94.1172 151.541 94.0723 151.326 93.9824C151.111 93.8887 150.924 93.7617 150.764 93.6016C150.604 93.4414 150.477 93.2539 150.383 93.0391C150.293 92.8242 150.248 92.5957 150.248 92.3535V92.2949C150.248 92.0527 150.293 91.8242 150.383 91.6094C150.477 91.3945 150.604 91.207 150.764 91.0469C150.924 90.8867 151.111 90.7617 151.326 90.6719C151.541 90.5781 151.77 90.5312 152.012 90.5312H153.535V89.6055C153.535 89.4609 153.508 89.3262 153.453 89.2012C153.398 89.0723 153.324 88.9609 153.23 88.8672C153.137 88.7734 153.025 88.6992 152.896 88.6445C152.771 88.5898 152.637 88.5625 152.492 88.5625H152.07C151.926 88.5625 151.789 88.5898 151.66 88.6445C151.535 88.6992 151.426 88.7734 151.332 88.8672C151.238 88.9609 151.164 89.0723 151.109 89.2012C151.055 89.3262 151.027 89.4609 151.027 89.6055V89.8223L150.307 89.7051V89.6465C150.307 89.4043 150.352 89.1758 150.441 88.9609C150.535 88.7461 150.662 88.5586 150.822 88.3984C150.982 88.2383 151.17 88.1133 151.385 88.0234C151.6 87.9297 151.828 87.8828 152.07 87.8828H152.492C152.734 87.8828 152.963 87.9297 153.178 88.0234C153.393 88.1133 153.58 88.2383 153.74 88.3984C153.9 88.5586 154.025 88.7461 154.115 88.9609C154.209 89.1758 154.256 89.4043 154.256 89.6465V94H154.016ZM153.535 91.0938H152.012C151.867 91.0938 151.73 91.1211 151.602 91.1758C151.477 91.2305 151.367 91.3066 151.273 91.4043C151.18 91.498 151.105 91.6094 151.051 91.7383C150.996 91.8633 150.969 91.998 150.969 92.1426V92.3945C150.969 92.5391 150.996 92.6758 151.051 92.8047C151.105 92.9297 151.18 93.0391 151.273 93.1328C151.367 93.2266 151.477 93.3008 151.602 93.3555C151.73 93.4102 151.867 93.4375 152.012 93.4375H152.492C152.637 93.4375 152.771 93.4102 152.896 93.3555C153.025 93.3008 153.137 93.2266 153.23 93.1328C153.324 93.0391 153.398 92.9297 153.453 92.8047C153.508 92.6758 153.535 92.5391 153.535 92.3945V91.0938ZM158.984 94V89.6055C158.984 89.4609 158.957 89.3262 158.902 89.2012C158.848 89.0723 158.773 88.9609 158.68 88.8672C158.586 88.7734 158.475 88.6992 158.346 88.6445C158.221 88.5898 158.086 88.5625 157.941 88.5625H157.461C157.316 88.5625 157.18 88.5898 157.051 88.6445C156.926 88.6992 156.816 88.7734 156.723 88.8672C156.629 88.9609 156.555 89.0723 156.5 89.2012C156.445 89.3262 156.418 89.4609 156.418 89.6055V94H155.697V88H155.938L156.33 88.6094C156.494 88.3867 156.699 88.2109 156.945 88.082C157.195 87.9492 157.467 87.8828 157.76 87.8828H157.941C158.184 87.8828 158.412 87.9297 158.627 88.0234C158.842 88.1133 159.029 88.2383 159.189 88.3984C159.35 88.5586 159.475 88.7461 159.564 88.9609C159.658 89.1758 159.705 89.4043 159.705 89.6465V94H158.984ZM163.332 94C163.113 94 162.906 93.959 162.711 93.877C162.52 93.7949 162.352 93.6816 162.207 93.5371C162.066 93.3926 161.953 93.2246 161.867 93.0332C161.785 92.8418 161.744 92.6367 161.744 92.418V88.6855H160.666V88H161.744V86.5586L162.465 86.4414V88H163.988V88.6855H162.465V92.4531C162.465 92.5742 162.486 92.6875 162.529 92.793C162.576 92.8945 162.639 92.9844 162.717 93.0625C162.795 93.1406 162.887 93.2031 162.992 93.25C163.098 93.293 163.211 93.3145 163.332 93.3145H163.988V94H163.332Z" fill="#FFA2C0"/>
<rect x="194" y="32" width="60" height="70" rx="9" fill="#E5F7F8"/>
<path d="M214.113 92.043H211.453L210.902 94H210.117L212.578 85.5977H212.977L215.449 94H214.67L214.113 92.043ZM211.658 91.3223H213.914L212.807 87.4492L212.783 87.1387L212.76 87.4492L211.658 91.3223ZM220.055 94L219.656 93.3906C219.492 93.6133 219.287 93.791 219.041 93.9238C218.795 94.0527 218.525 94.1172 218.232 94.1172H218.051C217.809 94.1172 217.58 94.0723 217.365 93.9824C217.15 93.8887 216.963 93.7617 216.803 93.6016C216.643 93.4414 216.516 93.2539 216.422 93.0391C216.332 92.8242 216.287 92.5957 216.287 92.3535V89.6465C216.287 89.4043 216.332 89.1758 216.422 88.9609C216.516 88.7461 216.643 88.5586 216.803 88.3984C216.963 88.2383 217.15 88.1133 217.365 88.0234C217.58 87.9297 217.809 87.8828 218.051 87.8828H218.232C218.502 87.8828 218.752 87.9375 218.982 88.0469C219.213 88.1562 219.41 88.3086 219.574 88.5039V85.5977H220.295V94H220.055ZM219.574 89.6055C219.574 89.4609 219.547 89.3262 219.492 89.2012C219.438 89.0723 219.363 88.9609 219.27 88.8672C219.176 88.7734 219.064 88.6992 218.936 88.6445C218.811 88.5898 218.676 88.5625 218.531 88.5625H218.051C217.906 88.5625 217.77 88.5898 217.641 88.6445C217.516 88.6992 217.406 88.7734 217.312 88.8672C217.219 88.9609 217.145 89.0723 217.09 89.2012C217.035 89.3262 217.008 89.4609 217.008 89.6055V92.3945C217.008 92.5391 217.035 92.6758 217.09 92.8047C217.145 92.9297 217.219 93.0391 217.312 93.1328C217.406 93.2266 217.516 93.3008 217.641 93.3555C217.77 93.4102 217.906 93.4375 218.051 93.4375H218.531C218.676 93.4375 218.811 93.4102 218.936 93.3555C219.064 93.3008 219.176 93.2266 219.27 93.1328C219.363 93.0391 219.438 92.9297 219.492 92.8047C219.547 92.6758 219.574 92.5391 219.574 92.3945V89.6055ZM228.07 94V89.6055C228.07 89.4609 228.043 89.3262 227.988 89.2012C227.934 89.0723 227.859 88.9609 227.766 88.8672C227.672 88.7734 227.561 88.6992 227.432 88.6445C227.307 88.5898 227.172 88.5625 227.027 88.5625H226.67C226.525 88.5625 226.389 88.5898 226.26 88.6445C226.135 88.6992 226.023 88.7734 225.926 88.8672C225.832 88.9609 225.758 89.0723 225.703 89.2012C225.648 89.3262 225.621 89.4609 225.621 89.6055V94H224.906V89.6055C224.906 89.4609 224.879 89.3262 224.824 89.2012C224.77 89.0723 224.693 88.9609 224.596 88.8672C224.502 88.7734 224.391 88.6992 224.262 88.6445C224.137 88.5898 224.002 88.5625 223.857 88.5625H223.5C223.355 88.5625 223.219 88.5898 223.09 88.6445C222.965 88.6992 222.855 88.7734 222.762 88.8672C222.668 88.9609 222.594 89.0723 222.539 89.2012C222.484 89.3262 222.457 89.4609 222.457 89.6055V94H221.736V88H221.977L222.369 88.6094C222.533 88.3867 222.738 88.2109 222.984 88.082C223.234 87.9492 223.506 87.8828 223.799 87.8828H223.857C224.197 87.8828 224.504 87.9668 224.777 88.1348C225.051 88.3027 225.262 88.5254 225.41 88.8027C225.484 88.666 225.576 88.541 225.686 88.4277C225.795 88.3145 225.916 88.2188 226.049 88.1406C226.182 88.0586 226.326 87.9961 226.482 87.9531C226.639 87.9062 226.801 87.8828 226.969 87.8828H227.027C227.27 87.8828 227.498 87.9297 227.713 88.0234C227.928 88.1133 228.115 88.2383 228.275 88.3984C228.436 88.5586 228.561 88.7461 228.65 88.9609C228.744 89.1758 228.791 89.4043 228.791 89.6465V94H228.07ZM230.414 86.5586V85.5977H231.252V86.5586H230.414ZM230.473 94V88H231.193V94H230.473ZM236.168 94V89.6055C236.168 89.4609 236.141 89.3262 236.086 89.2012C236.031 89.0723 235.957 88.9609 235.863 88.8672C235.77 88.7734 235.658 88.6992 235.529 88.6445C235.404 88.5898 235.27 88.5625 235.125 88.5625H234.645C234.5 88.5625 234.363 88.5898 234.234 88.6445C234.109 88.6992 234 88.7734 233.906 88.8672C233.812 88.9609 233.738 89.0723 233.684 89.2012C233.629 89.3262 233.602 89.4609 233.602 89.6055V94H232.881V88H233.121L233.514 88.6094C233.678 88.3867 233.883 88.2109 234.129 88.082C234.379 87.9492 234.65 87.8828 234.943 87.8828H235.125C235.367 87.8828 235.596 87.9297 235.811 88.0234C236.025 88.1133 236.213 88.2383 236.373 88.3984C236.533 88.5586 236.658 88.7461 236.748 88.9609C236.842 89.1758 236.889 89.4043 236.889 89.6465V94H236.168Z" fill="#7FD6DC"/>
<path d="M148 76V74C148 72.9391 147.579 71.9217 146.828 71.1716C146.078 70.4214 145.061 70 144 70H136C134.939 70 133.922 70.4214 133.172 71.1716C132.421 71.9217 132 72.9391 132 74V76" stroke="#C84971" stroke-width="2" stroke-linecap="round" stroke-linejoin="round"/>
<path d="M140 66C142.209 66 144 64.2091 144 62C144 59.7909 142.209 58 140 58C137.791 58 136 59.7909 136 62C136 64.2091 137.791 66 140 66Z" stroke="#C84971" stroke-width="2" stroke-linecap="round" stroke-linejoin="round"/>
<path d="M154 76V74C153.999 73.1137 153.704 72.2528 153.161 71.5523C152.618 70.8519 151.858 70.3516 151 70.13" stroke="#C84971" stroke-width="2" stroke-linecap="round" stroke-linejoin="round"/>
<path d="M147 58.13C147.86 58.3503 148.623 58.8507 149.168 59.5523C149.712 60.2539 150.008 61.1168 150.008 62.005C150.008 62.8932 149.712 63.7561 149.168 64.4577C148.623 65.1593 147.86 65.6597 147 65.88" stroke="#C84971" stroke-width="2" stroke-linecap="round" stroke-linejoin="round"/>
<path d="M72 76V74C72 72.9391 71.5786 71.9217 70.8284 71.1716C70.0783 70.4214 69.0609 70 68 70H60C58.9391 70 57.9217 70.4214 57.1716 71.1716C56.4214 71.9217 56 72.9391 56 74V76" stroke="#936D2A" stroke-width="2" stroke-linecap="round" stroke-linejoin="round"/>
<path d="M64 66C66.2091 66 68 64.2091 68 62C68 59.7909 66.2091 58 64 58C61.7909 58 60 59.7909 60 62C60 64.2091 61.7909 66 64 66Z" stroke="#936D2A" stroke-width="2" stroke-linecap="round" stroke-linejoin="round"/>
<path d="M224 77C224 77 232 73 232 67V60L224 57L216 60V67C216 73 224 77 224 77Z" stroke="#2ACCD4" stroke-width="2" stroke-linecap="round" stroke-linejoin="round"/>
</svg>
