<svg width="289" height="246" viewBox="0 0 289 246" fill="none" xmlns="http://www.w3.org/2000/svg">
<path d="M0 20C0 8.9543 8.9543 0 20 0H269C280.046 0 289 8.95431 289 20V175C289 186.046 280.046 195 269 195H216.75H190.967C184.48 195 178.396 198.146 174.647 203.44L152.66 234.48C148.675 240.106 140.325 240.106 136.34 234.48L114.353 203.44C110.604 198.146 104.52 195 98.0326 195H72.25H20C8.9543 195 0 186.046 0 175V20Z" fill="white"/>
<rect x="34" y="32" width="60" height="70" rx="9" fill="#FDF8EF"/>
<path d="M47.8379 94V85.5977H48.5938V93.2793H51.8105V94H47.8379ZM56.7793 92.3535C56.7793 92.5957 56.7324 92.8242 56.6387 93.0391C56.5488 93.2539 56.4238 93.4414 56.2637 93.6016C56.1035 93.7617 55.916 93.8887 55.7012 93.9824C55.4863 94.0723 55.2578 94.1172 55.0156 94.1172H54.5352C54.293 94.1172 54.0645 94.0723 53.8496 93.9824C53.6348 93.8887 53.4473 93.7617 53.2871 93.6016C53.127 93.4414 53 93.2539 52.9062 93.0391C52.8164 92.8242 52.7715 92.5957 52.7715 92.3535V89.6465C52.7715 89.4043 52.8164 89.1758 52.9062 88.9609C53 88.7461 53.127 88.5586 53.2871 88.3984C53.4473 88.2383 53.6348 88.1133 53.8496 88.0234C54.0645 87.9297 54.293 87.8828 54.5352 87.8828H55.0156C55.2578 87.8828 55.4863 87.9297 55.7012 88.0234C55.916 88.1133 56.1035 88.2383 56.2637 88.3984C56.4238 88.5586 56.5488 88.7461 56.6387 88.9609C56.7324 89.1758 56.7793 89.4043 56.7793 89.6465V92.3535ZM56.0586 89.6055C56.0586 89.4609 56.0312 89.3262 55.9766 89.2012C55.9219 89.0723 55.8477 88.9609 55.7539 88.8672C55.6602 88.7734 55.5488 88.6992 55.4199 88.6445C55.2949 88.5898 55.1602 88.5625 55.0156 88.5625H54.5352C54.3906 88.5625 54.2539 88.5898 54.125 88.6445C54 88.6992 53.8906 88.7734 53.7969 88.8672C53.7031 88.9609 53.6289 89.0723 53.5742 89.2012C53.5195 89.3262 53.4922 89.4609 53.4922 89.6055V92.3945C53.4922 92.5391 53.5195 92.6758 53.5742 92.8047C53.6289 92.9297 53.7031 93.0391 53.7969 93.1328C53.8906 93.2266 54 93.3008 54.125 93.3555C54.2539 93.4102 54.3906 93.4375 54.5352 93.4375H55.0156C55.1602 93.4375 55.2949 93.4102 55.4199 93.3555C55.5488 93.3008 55.6602 93.2266 55.7539 93.1328C55.8477 93.0391 55.9219 92.9297 55.9766 92.8047C56.0312 92.6758 56.0586 92.5391 56.0586 92.3945V89.6055ZM62.2285 92.3535C62.2285 92.5957 62.1816 92.8242 62.0879 93.0391C61.998 93.2539 61.873 93.4414 61.7129 93.6016C61.5527 93.7617 61.3652 93.8887 61.1504 93.9824C60.9355 94.0723 60.707 94.1172 60.4648 94.1172H59.9844C59.7422 94.1172 59.5137 94.0723 59.2988 93.9824C59.084 93.8887 58.8965 93.7617 58.7363 93.6016C58.5762 93.4414 58.4492 93.2539 58.3555 93.0391C58.2656 92.8242 58.2207 92.5957 58.2207 92.3535V89.6465C58.2207 89.4043 58.2656 89.1758 58.3555 88.9609C58.4492 88.7461 58.5762 88.5586 58.7363 88.3984C58.8965 88.2383 59.084 88.1133 59.2988 88.0234C59.5137 87.9297 59.7422 87.8828 59.9844 87.8828H60.4648C60.707 87.8828 60.9355 87.9297 61.1504 88.0234C61.3652 88.1133 61.5527 88.2383 61.7129 88.3984C61.873 88.5586 61.998 88.7461 62.0879 88.9609C62.1816 89.1758 62.2285 89.4043 62.2285 89.6465V89.8867L61.5078 90.0039V89.6055C61.5078 89.4609 61.4805 89.3262 61.4258 89.2012C61.3711 89.0723 61.2969 88.9609 61.2031 88.8672C61.1094 88.7734 60.998 88.6992 60.8691 88.6445C60.7441 88.5898 60.6094 88.5625 60.4648 88.5625H59.9844C59.8398 88.5625 59.7031 88.5898 59.5742 88.6445C59.4492 88.6992 59.3398 88.7734 59.2461 88.8672C59.1523 88.9609 59.0781 89.0723 59.0234 89.2012C58.9688 89.3262 58.9414 89.4609 58.9414 89.6055V92.3945C58.9414 92.5391 58.9688 92.6758 59.0234 92.8047C59.0781 92.9297 59.1523 93.0391 59.2461 93.1328C59.3398 93.2266 59.4492 93.3008 59.5742 93.3555C59.7031 93.4102 59.8398 93.4375 59.9844 93.4375H60.4648C60.6094 93.4375 60.7441 93.4102 60.8691 93.3555C60.998 93.3008 61.1094 93.2266 61.2031 93.1328C61.2969 93.0391 61.3711 92.9297 61.4258 92.8047C61.4805 92.6758 61.5078 92.5391 61.5078 92.3945V91.9961L62.2285 92.1133V92.3535ZM67.4375 94L67.0391 93.4023C66.875 93.6172 66.6699 93.791 66.4238 93.9238C66.1777 94.0527 65.9082 94.1172 65.6152 94.1172H65.4336C65.1914 94.1172 64.9629 94.0723 64.748 93.9824C64.5332 93.8887 64.3457 93.7617 64.1855 93.6016C64.0254 93.4414 63.8984 93.2539 63.8047 93.0391C63.7148 92.8242 63.6699 92.5957 63.6699 92.3535V92.2949C63.6699 92.0527 63.7148 91.8242 63.8047 91.6094C63.8984 91.3945 64.0254 91.207 64.1855 91.0469C64.3457 90.8867 64.5332 90.7617 64.748 90.6719C64.9629 90.5781 65.1914 90.5312 65.4336 90.5312H66.957V89.6055C66.957 89.4609 66.9297 89.3262 66.875 89.2012C66.8203 89.0723 66.7461 88.9609 66.6523 88.8672C66.5586 88.7734 66.4473 88.6992 66.3184 88.6445C66.1934 88.5898 66.0586 88.5625 65.9141 88.5625H65.4922C65.3477 88.5625 65.2109 88.5898 65.082 88.6445C64.957 88.6992 64.8477 88.7734 64.7539 88.8672C64.6602 88.9609 64.5859 89.0723 64.5312 89.2012C64.4766 89.3262 64.4492 89.4609 64.4492 89.6055V89.8223L63.7285 89.7051V89.6465C63.7285 89.4043 63.7734 89.1758 63.8633 88.9609C63.957 88.7461 64.084 88.5586 64.2441 88.3984C64.4043 88.2383 64.5918 88.1133 64.8066 88.0234C65.0215 87.9297 65.25 87.8828 65.4922 87.8828H65.9141C66.1562 87.8828 66.3848 87.9297 66.5996 88.0234C66.8145 88.1133 67.002 88.2383 67.1621 88.3984C67.3223 88.5586 67.4473 88.7461 67.5371 88.9609C67.6309 89.1758 67.6777 89.4043 67.6777 89.6465V94H67.4375ZM66.957 91.0938H65.4336C65.2891 91.0938 65.1523 91.1211 65.0234 91.1758C64.8984 91.2305 64.7891 91.3066 64.6953 91.4043C64.6016 91.498 64.5273 91.6094 64.4727 91.7383C64.418 91.8633 64.3906 91.998 64.3906 92.1426V92.3945C64.3906 92.5391 64.418 92.6758 64.4727 92.8047C64.5273 92.9297 64.6016 93.0391 64.6953 93.1328C64.7891 93.2266 64.8984 93.3008 65.0234 93.3555C65.1523 93.4102 65.2891 93.4375 65.4336 93.4375H65.9141C66.0586 93.4375 66.1934 93.4102 66.3184 93.3555C66.4473 93.3008 66.5586 93.2266 66.6523 93.1328C66.7461 93.0391 66.8203 92.9297 66.875 92.8047C66.9297 92.6758 66.957 92.5391 66.957 92.3945V91.0938ZM71.3047 94C71.0859 94 70.8789 93.959 70.6836 93.877C70.4922 93.7949 70.3242 93.6816 70.1797 93.5371C70.0391 93.3926 69.9258 93.2246 69.8398 93.0332C69.7578 92.8418 69.7168 92.6367 69.7168 92.418V88.6855H68.6387V88H69.7168V86.5586L70.4375 86.4414V88H71.9609V88.6855H70.4375V92.4531C70.4375 92.5742 70.459 92.6875 70.502 92.793C70.5488 92.8945 70.6113 92.9844 70.6895 93.0625C70.7676 93.1406 70.8594 93.2031 70.9648 93.25C71.0703 93.293 71.1836 93.3145 71.3047 93.3145H71.9609V94H71.3047ZM73.4727 86.5586V85.5977H74.3105V86.5586H73.4727ZM73.5312 94V88H74.252V94H73.5312ZM79.9473 92.3535C79.9473 92.5957 79.9004 92.8242 79.8066 93.0391C79.7168 93.2539 79.5918 93.4414 79.4316 93.6016C79.2715 93.7617 79.084 93.8887 78.8691 93.9824C78.6543 94.0723 78.4258 94.1172 78.1836 94.1172H77.7031C77.4609 94.1172 77.2324 94.0723 77.0176 93.9824C76.8027 93.8887 76.6152 93.7617 76.4551 93.6016C76.2949 93.4414 76.168 93.2539 76.0742 93.0391C75.9844 92.8242 75.9395 92.5957 75.9395 92.3535V89.6465C75.9395 89.4043 75.9844 89.1758 76.0742 88.9609C76.168 88.7461 76.2949 88.5586 76.4551 88.3984C76.6152 88.2383 76.8027 88.1133 77.0176 88.0234C77.2324 87.9297 77.4609 87.8828 77.7031 87.8828H78.1836C78.4258 87.8828 78.6543 87.9297 78.8691 88.0234C79.084 88.1133 79.2715 88.2383 79.4316 88.3984C79.5918 88.5586 79.7168 88.7461 79.8066 88.9609C79.9004 89.1758 79.9473 89.4043 79.9473 89.6465V92.3535ZM79.2266 89.6055C79.2266 89.4609 79.1992 89.3262 79.1445 89.2012C79.0898 89.0723 79.0156 88.9609 78.9219 88.8672C78.8281 88.7734 78.7168 88.6992 78.5879 88.6445C78.4629 88.5898 78.3281 88.5625 78.1836 88.5625H77.7031C77.5586 88.5625 77.4219 88.5898 77.293 88.6445C77.168 88.6992 77.0586 88.7734 76.9648 88.8672C76.8711 88.9609 76.7969 89.0723 76.7422 89.2012C76.6875 89.3262 76.6602 89.4609 76.6602 89.6055V92.3945C76.6602 92.5391 76.6875 92.6758 76.7422 92.8047C76.7969 92.9297 76.8711 93.0391 76.9648 93.1328C77.0586 93.2266 77.168 93.3008 77.293 93.3555C77.4219 93.4102 77.5586 93.4375 77.7031 93.4375H78.1836C78.3281 93.4375 78.4629 93.4102 78.5879 93.3555C78.7168 93.3008 78.8281 93.2266 78.9219 93.1328C79.0156 93.0391 79.0898 92.9297 79.1445 92.8047C79.1992 92.6758 79.2266 92.5391 79.2266 92.3945V89.6055ZM84.6758 94V89.6055C84.6758 89.4609 84.6484 89.3262 84.5938 89.2012C84.5391 89.0723 84.4648 88.9609 84.3711 88.8672C84.2773 88.7734 84.166 88.6992 84.0371 88.6445C83.9121 88.5898 83.7773 88.5625 83.6328 88.5625H83.1523C83.0078 88.5625 82.8711 88.5898 82.7422 88.6445C82.6172 88.6992 82.5078 88.7734 82.4141 88.8672C82.3203 88.9609 82.2461 89.0723 82.1914 89.2012C82.1367 89.3262 82.1094 89.4609 82.1094 89.6055V94H81.3887V88H81.6289L82.0215 88.6094C82.1855 88.3867 82.3906 88.2109 82.6367 88.082C82.8867 87.9492 83.1582 87.8828 83.4512 87.8828H83.6328C83.875 87.8828 84.1035 87.9297 84.3184 88.0234C84.5332 88.1133 84.7207 88.2383 84.8809 88.3984C85.041 88.5586 85.166 88.7461 85.2559 88.9609C85.3496 89.1758 85.3965 89.4043 85.3965 89.6465V94H84.6758Z" fill="#9C7021"/>
<rect x="80" y="131" width="130" height="30" rx="9" fill="#EFF1FD"/>
<rect x="105" y="143" width="80" height="6" rx="3" fill="#4424A7"/>
<rect x="114" y="32" width="60" height="70" rx="9" fill="#FFECF2"/>
<path d="M128.689 88.709C128.689 88.9941 128.635 89.2617 128.525 89.5117C128.42 89.7617 128.273 89.9805 128.086 90.168C127.898 90.3555 127.678 90.5039 127.424 90.6133C127.174 90.7188 126.906 90.7715 126.621 90.7715H124.717V94H123.961V85.5977H126.621C126.906 85.5977 127.174 85.6523 127.424 85.7617C127.678 85.8672 127.898 86.0137 128.086 86.2012C128.273 86.3887 128.42 86.6094 128.525 86.8633C128.635 87.1133 128.689 87.3809 128.689 87.666V88.709ZM127.934 87.666C127.934 87.4785 127.898 87.3047 127.828 87.1445C127.758 86.9805 127.66 86.8379 127.535 86.7168C127.414 86.5918 127.271 86.4941 127.107 86.4238C126.947 86.3535 126.773 86.3184 126.586 86.3184H124.717V90.0508H126.586C126.773 90.0508 126.947 90.0156 127.107 89.9453C127.271 89.875 127.414 89.7793 127.535 89.6582C127.66 89.5371 127.758 89.3965 127.828 89.2363C127.898 89.0723 127.934 88.8965 127.934 88.709V87.666ZM133.664 94L133.266 93.4023C133.102 93.6172 132.896 93.791 132.65 93.9238C132.404 94.0527 132.135 94.1172 131.842 94.1172H131.66C131.418 94.1172 131.189 94.0723 130.975 93.9824C130.76 93.8887 130.572 93.7617 130.412 93.6016C130.252 93.4414 130.125 93.2539 130.031 93.0391C129.941 92.8242 129.896 92.5957 129.896 92.3535V92.2949C129.896 92.0527 129.941 91.8242 130.031 91.6094C130.125 91.3945 130.252 91.207 130.412 91.0469C130.572 90.8867 130.76 90.7617 130.975 90.6719C131.189 90.5781 131.418 90.5312 131.66 90.5312H133.184V89.6055C133.184 89.4609 133.156 89.3262 133.102 89.2012C133.047 89.0723 132.973 88.9609 132.879 88.8672C132.785 88.7734 132.674 88.6992 132.545 88.6445C132.42 88.5898 132.285 88.5625 132.141 88.5625H131.719C131.574 88.5625 131.438 88.5898 131.309 88.6445C131.184 88.6992 131.074 88.7734 130.98 88.8672C130.887 88.9609 130.812 89.0723 130.758 89.2012C130.703 89.3262 130.676 89.4609 130.676 89.6055V89.8223L129.955 89.7051V89.6465C129.955 89.4043 130 89.1758 130.09 88.9609C130.184 88.7461 130.311 88.5586 130.471 88.3984C130.631 88.2383 130.818 88.1133 131.033 88.0234C131.248 87.9297 131.477 87.8828 131.719 87.8828H132.141C132.383 87.8828 132.611 87.9297 132.826 88.0234C133.041 88.1133 133.229 88.2383 133.389 88.3984C133.549 88.5586 133.674 88.7461 133.764 88.9609C133.857 89.1758 133.904 89.4043 133.904 89.6465V94H133.664ZM133.184 91.0938H131.66C131.516 91.0938 131.379 91.1211 131.25 91.1758C131.125 91.2305 131.016 91.3066 130.922 91.4043C130.828 91.498 130.754 91.6094 130.699 91.7383C130.645 91.8633 130.617 91.998 130.617 92.1426V92.3945C130.617 92.5391 130.645 92.6758 130.699 92.8047C130.754 92.9297 130.828 93.0391 130.922 93.1328C131.016 93.2266 131.125 93.3008 131.25 93.3555C131.379 93.4102 131.516 93.4375 131.66 93.4375H132.141C132.285 93.4375 132.42 93.4102 132.545 93.3555C132.674 93.3008 132.785 93.2266 132.879 93.1328C132.973 93.0391 133.047 92.9297 133.102 92.8047C133.156 92.6758 133.184 92.5391 133.184 92.3945V91.0938ZM136.318 96.4023H135.621L136.688 93.4844L134.742 88H135.463L137.027 92.5469L137.051 92.8574L137.074 92.5469L138.633 88H139.354L136.318 96.4023ZM146.414 94V89.6055C146.414 89.4609 146.387 89.3262 146.332 89.2012C146.277 89.0723 146.203 88.9609 146.109 88.8672C146.016 88.7734 145.904 88.6992 145.775 88.6445C145.65 88.5898 145.516 88.5625 145.371 88.5625H145.014C144.869 88.5625 144.732 88.5898 144.604 88.6445C144.479 88.6992 144.367 88.7734 144.27 88.8672C144.176 88.9609 144.102 89.0723 144.047 89.2012C143.992 89.3262 143.965 89.4609 143.965 89.6055V94H143.25V89.6055C143.25 89.4609 143.223 89.3262 143.168 89.2012C143.113 89.0723 143.037 88.9609 142.939 88.8672C142.846 88.7734 142.734 88.6992 142.605 88.6445C142.48 88.5898 142.346 88.5625 142.201 88.5625H141.844C141.699 88.5625 141.562 88.5898 141.434 88.6445C141.309 88.6992 141.199 88.7734 141.105 88.8672C141.012 88.9609 140.938 89.0723 140.883 89.2012C140.828 89.3262 140.801 89.4609 140.801 89.6055V94H140.08V88H140.32L140.713 88.6094C140.877 88.3867 141.082 88.2109 141.328 88.082C141.578 87.9492 141.85 87.8828 142.143 87.8828H142.201C142.541 87.8828 142.848 87.9668 143.121 88.1348C143.395 88.3027 143.605 88.5254 143.754 88.8027C143.828 88.666 143.92 88.541 144.029 88.4277C144.139 88.3145 144.26 88.2188 144.393 88.1406C144.525 88.0586 144.67 87.9961 144.826 87.9531C144.982 87.9062 145.145 87.8828 145.312 87.8828H145.371C145.613 87.8828 145.842 87.9297 146.057 88.0234C146.271 88.1133 146.459 88.2383 146.619 88.3984C146.779 88.5586 146.904 88.7461 146.994 88.9609C147.088 89.1758 147.135 89.4043 147.135 89.6465V94H146.414ZM152.584 92.3535C152.584 92.5957 152.537 92.8242 152.443 93.0391C152.354 93.2539 152.229 93.4414 152.068 93.6016C151.908 93.7617 151.721 93.8887 151.506 93.9824C151.291 94.0723 151.062 94.1172 150.82 94.1172H150.34C150.098 94.1172 149.869 94.0723 149.654 93.9824C149.439 93.8887 149.252 93.7617 149.092 93.6016C148.932 93.4414 148.805 93.2539 148.711 93.0391C148.621 92.8242 148.576 92.5957 148.576 92.3535V89.6465C148.576 89.4043 148.621 89.1758 148.711 88.9609C148.805 88.7461 148.932 88.5586 149.092 88.3984C149.252 88.2383 149.439 88.1133 149.654 88.0234C149.869 87.9297 150.098 87.8828 150.34 87.8828H150.82C151.062 87.8828 151.291 87.9297 151.506 88.0234C151.721 88.1133 151.908 88.2383 152.068 88.3984C152.229 88.5586 152.354 88.7461 152.443 88.9609C152.537 89.1758 152.584 89.4043 152.584 89.6465V91.0586H149.297V92.3945C149.297 92.5391 149.324 92.6758 149.379 92.8047C149.434 92.9297 149.508 93.0391 149.602 93.1328C149.695 93.2266 149.805 93.3008 149.93 93.3555C150.059 93.4102 150.195 93.4375 150.34 93.4375H150.82C150.965 93.4375 151.1 93.4102 151.225 93.3555C151.354 93.3008 151.465 93.2266 151.559 93.1328C151.652 93.0391 151.727 92.9297 151.781 92.8047C151.836 92.6758 151.863 92.5391 151.863 92.3945V91.9961L152.584 92.1133V92.3535ZM151.863 89.6055C151.863 89.4609 151.836 89.3262 151.781 89.2012C151.727 89.0723 151.652 88.9609 151.559 88.8672C151.465 88.7734 151.354 88.6992 151.225 88.6445C151.1 88.5898 150.965 88.5625 150.82 88.5625H150.34C150.195 88.5625 150.059 88.5898 149.93 88.6445C149.805 88.6992 149.695 88.7734 149.602 88.8672C149.508 88.9609 149.434 89.0723 149.379 89.2012C149.324 89.3262 149.297 89.4609 149.297 89.6055V90.4961H151.863V89.6055ZM157.312 94V89.6055C157.312 89.4609 157.285 89.3262 157.23 89.2012C157.176 89.0723 157.102 88.9609 157.008 88.8672C156.914 88.7734 156.803 88.6992 156.674 88.6445C156.549 88.5898 156.414 88.5625 156.27 88.5625H155.789C155.645 88.5625 155.508 88.5898 155.379 88.6445C155.254 88.6992 155.145 88.7734 155.051 88.8672C154.957 88.9609 154.883 89.0723 154.828 89.2012C154.773 89.3262 154.746 89.4609 154.746 89.6055V94H154.025V88H154.266L154.658 88.6094C154.822 88.3867 155.027 88.2109 155.273 88.082C155.523 87.9492 155.795 87.8828 156.088 87.8828H156.27C156.512 87.8828 156.74 87.9297 156.955 88.0234C157.17 88.1133 157.357 88.2383 157.518 88.3984C157.678 88.5586 157.803 88.7461 157.893 88.9609C157.986 89.1758 158.033 89.4043 158.033 89.6465V94H157.312ZM161.66 94C161.441 94 161.234 93.959 161.039 93.877C160.848 93.7949 160.68 93.6816 160.535 93.5371C160.395 93.3926 160.281 93.2246 160.195 93.0332C160.113 92.8418 160.072 92.6367 160.072 92.418V88.6855H158.994V88H160.072V86.5586L160.793 86.4414V88H162.316V88.6855H160.793V92.4531C160.793 92.5742 160.814 92.6875 160.857 92.793C160.904 92.8945 160.967 92.9844 161.045 93.0625C161.123 93.1406 161.215 93.2031 161.32 93.25C161.426 93.293 161.539 93.3145 161.66 93.3145H162.316V94H161.66Z" fill="#FFA2C0"/>
<rect x="194" y="32" width="60" height="70" rx="9" fill="#E5F7F8"/>
<path d="M210.566 92.0547C210.566 92.3398 210.508 92.6074 210.391 92.8574C210.277 93.1074 210.123 93.3262 209.928 93.5137C209.736 93.7012 209.512 93.8496 209.254 93.959C209 94.0645 208.73 94.1172 208.445 94.1172H207.842C207.557 94.1172 207.285 94.0645 207.027 93.959C206.773 93.8496 206.549 93.7012 206.354 93.5137C206.162 93.3262 206.008 93.1074 205.891 92.8574C205.777 92.6074 205.721 92.3398 205.721 92.0547V91.7207L206.477 91.5977V92.0547C206.477 92.2422 206.514 92.418 206.588 92.582C206.666 92.7422 206.77 92.8848 206.898 93.0098C207.027 93.1309 207.176 93.2266 207.344 93.2969C207.516 93.3672 207.695 93.4023 207.883 93.4023H208.41C208.598 93.4023 208.775 93.3672 208.943 93.2969C209.111 93.2266 209.26 93.1309 209.389 93.0098C209.518 92.8848 209.619 92.7422 209.693 92.582C209.771 92.418 209.811 92.2422 209.811 92.0547V91.8027C209.811 91.5137 209.754 91.2734 209.641 91.082C209.527 90.8906 209.377 90.7285 209.189 90.5957C209.002 90.459 208.789 90.3438 208.551 90.25C208.316 90.1562 208.074 90.0625 207.824 89.9688C207.574 89.875 207.33 89.7715 207.092 89.6582C206.857 89.5449 206.646 89.4043 206.459 89.2363C206.271 89.0645 206.121 88.8555 206.008 88.6094C205.895 88.3633 205.838 88.0605 205.838 87.7012V87.543C205.838 87.2578 205.891 86.9902 205.996 86.7402C206.105 86.4902 206.254 86.2715 206.441 86.084C206.629 85.8965 206.848 85.75 207.098 85.6445C207.352 85.5352 207.621 85.4805 207.906 85.4805H208.445C208.73 85.4805 208.998 85.5352 209.248 85.6445C209.498 85.75 209.717 85.8965 209.904 86.084C210.092 86.2715 210.238 86.4902 210.344 86.7402C210.453 86.9902 210.508 87.2578 210.508 87.543V87.7598L209.752 87.8828V87.543C209.752 87.3555 209.717 87.1816 209.646 87.0215C209.576 86.8574 209.48 86.7148 209.359 86.5938C209.238 86.4727 209.096 86.377 208.932 86.3066C208.771 86.2363 208.598 86.2012 208.41 86.2012H207.941C207.754 86.2012 207.578 86.2363 207.414 86.3066C207.254 86.377 207.111 86.4727 206.986 86.5938C206.865 86.7148 206.77 86.8574 206.699 87.0215C206.629 87.1816 206.594 87.3555 206.594 87.543V87.7012C206.594 87.9707 206.65 88.1973 206.764 88.3809C206.877 88.5645 207.027 88.7227 207.215 88.8555C207.402 88.9844 207.613 89.0977 207.848 89.1953C208.086 89.2891 208.33 89.3867 208.58 89.4883C208.83 89.5859 209.072 89.6953 209.307 89.8164C209.545 89.9336 209.758 90.0801 209.945 90.2559C210.133 90.4277 210.283 90.6387 210.396 90.8887C210.51 91.1387 210.566 91.4434 210.566 91.8027V92.0547ZM215.242 94V89.6055C215.242 89.4609 215.215 89.3262 215.16 89.2012C215.105 89.0723 215.031 88.9609 214.938 88.8672C214.844 88.7734 214.732 88.6992 214.604 88.6445C214.479 88.5898 214.344 88.5625 214.199 88.5625H213.719C213.574 88.5625 213.438 88.5898 213.309 88.6445C213.184 88.6992 213.074 88.7734 212.98 88.8672C212.887 88.9609 212.812 89.0723 212.758 89.2012C212.703 89.3262 212.676 89.4609 212.676 89.6055V94H211.955V85.5977H212.676V88.5039C212.84 88.3086 213.037 88.1562 213.268 88.0469C213.498 87.9375 213.748 87.8828 214.018 87.8828H214.199C214.441 87.8828 214.67 87.9297 214.885 88.0234C215.1 88.1133 215.287 88.2383 215.447 88.3984C215.607 88.5586 215.732 88.7461 215.822 88.9609C215.916 89.1758 215.963 89.4043 215.963 89.6465V94H215.242ZM217.586 86.5586V85.5977H218.424V86.5586H217.586ZM217.645 94V88H218.365V94H217.645ZM224.061 92.3535C224.061 92.5957 224.014 92.8242 223.92 93.0391C223.83 93.2539 223.705 93.4414 223.545 93.6016C223.385 93.7617 223.197 93.8887 222.982 93.9824C222.768 94.0723 222.539 94.1172 222.297 94.1172H222.115C221.846 94.1172 221.596 94.0625 221.365 93.9531C221.135 93.8438 220.938 93.6914 220.773 93.4961V96.4023H220.053V88H220.293L220.686 88.6094C220.85 88.3867 221.055 88.2109 221.301 88.082C221.551 87.9492 221.822 87.8828 222.115 87.8828H222.297C222.539 87.8828 222.768 87.9297 222.982 88.0234C223.197 88.1133 223.385 88.2383 223.545 88.3984C223.705 88.5586 223.83 88.7461 223.92 88.9609C224.014 89.1758 224.061 89.4043 224.061 89.6465V92.3535ZM223.34 89.6055C223.34 89.4609 223.312 89.3262 223.258 89.2012C223.203 89.0723 223.129 88.9609 223.035 88.8672C222.941 88.7734 222.83 88.6992 222.701 88.6445C222.576 88.5898 222.441 88.5625 222.297 88.5625H221.816C221.672 88.5625 221.535 88.5898 221.406 88.6445C221.281 88.6992 221.172 88.7734 221.078 88.8672C220.984 88.9609 220.91 89.0723 220.855 89.2012C220.801 89.3262 220.773 89.4609 220.773 89.6055V92.3945C220.773 92.5391 220.801 92.6758 220.855 92.8047C220.91 92.9297 220.984 93.0391 221.078 93.1328C221.172 93.2266 221.281 93.3008 221.406 93.3555C221.535 93.4102 221.672 93.4375 221.816 93.4375H222.297C222.441 93.4375 222.576 93.4102 222.701 93.3555C222.83 93.3008 222.941 93.2266 223.035 93.1328C223.129 93.0391 223.203 92.9297 223.258 92.8047C223.312 92.6758 223.34 92.5391 223.34 92.3945V89.6055ZM229.51 92.3535C229.51 92.5957 229.463 92.8242 229.369 93.0391C229.279 93.2539 229.154 93.4414 228.994 93.6016C228.834 93.7617 228.646 93.8887 228.432 93.9824C228.217 94.0723 227.988 94.1172 227.746 94.1172H227.564C227.295 94.1172 227.045 94.0625 226.814 93.9531C226.584 93.8438 226.387 93.6914 226.223 93.4961V96.4023H225.502V88H225.742L226.135 88.6094C226.299 88.3867 226.504 88.2109 226.75 88.082C227 87.9492 227.271 87.8828 227.564 87.8828H227.746C227.988 87.8828 228.217 87.9297 228.432 88.0234C228.646 88.1133 228.834 88.2383 228.994 88.3984C229.154 88.5586 229.279 88.7461 229.369 88.9609C229.463 89.1758 229.51 89.4043 229.51 89.6465V92.3535ZM228.789 89.6055C228.789 89.4609 228.762 89.3262 228.707 89.2012C228.652 89.0723 228.578 88.9609 228.484 88.8672C228.391 88.7734 228.279 88.6992 228.15 88.6445C228.025 88.5898 227.891 88.5625 227.746 88.5625H227.266C227.121 88.5625 226.984 88.5898 226.855 88.6445C226.73 88.6992 226.621 88.7734 226.527 88.8672C226.434 88.9609 226.359 89.0723 226.305 89.2012C226.25 89.3262 226.223 89.4609 226.223 89.6055V92.3945C226.223 92.5391 226.25 92.6758 226.305 92.8047C226.359 92.9297 226.434 93.0391 226.527 93.1328C226.621 93.2266 226.73 93.3008 226.855 93.3555C226.984 93.4102 227.121 93.4375 227.266 93.4375H227.746C227.891 93.4375 228.025 93.4102 228.15 93.3555C228.279 93.3008 228.391 93.2266 228.484 93.1328C228.578 93.0391 228.652 92.9297 228.707 92.8047C228.762 92.6758 228.789 92.5391 228.789 92.3945V89.6055ZM231.133 86.5586V85.5977H231.971V86.5586H231.133ZM231.191 94V88H231.912V94H231.191ZM236.887 94V89.6055C236.887 89.4609 236.859 89.3262 236.805 89.2012C236.75 89.0723 236.676 88.9609 236.582 88.8672C236.488 88.7734 236.377 88.6992 236.248 88.6445C236.123 88.5898 235.988 88.5625 235.844 88.5625H235.363C235.219 88.5625 235.082 88.5898 234.953 88.6445C234.828 88.6992 234.719 88.7734 234.625 88.8672C234.531 88.9609 234.457 89.0723 234.402 89.2012C234.348 89.3262 234.32 89.4609 234.32 89.6055V94H233.6V88H233.84L234.232 88.6094C234.396 88.3867 234.602 88.2109 234.848 88.082C235.098 87.9492 235.369 87.8828 235.662 87.8828H235.844C236.086 87.8828 236.314 87.9297 236.529 88.0234C236.744 88.1133 236.932 88.2383 237.092 88.3984C237.252 88.5586 237.377 88.7461 237.467 88.9609C237.561 89.1758 237.607 89.4043 237.607 89.6465V94H236.887ZM243.115 94.7559C243.115 94.998 243.068 95.2207 242.975 95.4238C242.885 95.627 242.76 95.8008 242.6 95.9453C242.439 96.0898 242.252 96.2012 242.037 96.2793C241.822 96.3613 241.594 96.4023 241.352 96.4023H241.053C240.811 96.4023 240.582 96.3613 240.367 96.2793C240.152 96.2012 239.965 96.0898 239.805 95.9453C239.645 95.8008 239.518 95.627 239.424 95.4238C239.334 95.2207 239.289 94.998 239.289 94.7559V94.7324C239.289 94.498 239.332 94.2832 239.418 94.0879C239.504 93.8926 239.621 93.7227 239.77 93.5781C239.582 93.4648 239.432 93.3125 239.318 93.1211C239.209 92.9258 239.154 92.7109 239.154 92.4766C239.154 92.2656 239.199 92.0703 239.289 91.8906C239.379 91.707 239.502 91.5586 239.658 91.4453C239.471 91.2812 239.322 91.084 239.213 90.8535C239.104 90.623 239.049 90.3711 239.049 90.0977V89.6465C239.049 89.4043 239.094 89.1758 239.184 88.9609C239.277 88.7461 239.404 88.5586 239.564 88.3984C239.725 88.2383 239.912 88.1133 240.127 88.0234C240.342 87.9297 240.57 87.8828 240.812 87.8828H241.111C241.404 87.8828 241.674 87.9492 241.92 88.082C242.17 88.2109 242.377 88.3867 242.541 88.6094L242.934 88H243.174V90.0977C243.174 90.3398 243.127 90.5684 243.033 90.7832C242.943 90.998 242.818 91.1855 242.658 91.3457C242.498 91.5059 242.311 91.6328 242.096 91.7266C241.881 91.8164 241.652 91.8613 241.41 91.8613H240.367C240.285 91.8613 240.207 91.8789 240.133 91.9141C240.059 91.9453 239.992 91.9883 239.934 92.043C239.879 92.0977 239.836 92.1641 239.805 92.2422C239.773 92.3164 239.758 92.3945 239.758 92.4766C239.758 92.5586 239.773 92.6367 239.805 92.7109C239.836 92.7852 239.879 92.8516 239.934 92.9102C239.992 92.9648 240.059 93.0078 240.133 93.0391C240.207 93.0703 240.285 93.0859 240.367 93.0859H241.352C241.594 93.0859 241.822 93.127 242.037 93.209C242.252 93.2871 242.439 93.3984 242.6 93.543C242.76 93.6875 242.885 93.8613 242.975 94.0645C243.068 94.2676 243.115 94.4902 243.115 94.7324V94.7559ZM242.459 89.6055C242.459 89.4609 242.432 89.3262 242.377 89.2012C242.322 89.0723 242.246 88.9609 242.148 88.8672C242.055 88.7734 241.943 88.6992 241.814 88.6445C241.689 88.5898 241.555 88.5625 241.41 88.5625H240.812C240.668 88.5625 240.531 88.5898 240.402 88.6445C240.277 88.6992 240.168 88.7734 240.074 88.8672C239.98 88.9609 239.906 89.0723 239.852 89.2012C239.797 89.3262 239.77 89.4609 239.77 89.6055V90.1387C239.77 90.2832 239.797 90.4199 239.852 90.5488C239.906 90.6738 239.98 90.7832 240.074 90.877C240.168 90.9707 240.277 91.0449 240.402 91.0996C240.531 91.1543 240.668 91.1816 240.812 91.1816H241.41C241.555 91.1816 241.689 91.1543 241.814 91.0996C241.943 91.0449 242.055 90.9707 242.148 90.877C242.246 90.7832 242.322 90.6738 242.377 90.5488C242.432 90.4199 242.459 90.2832 242.459 90.1387V89.6055ZM242.43 94.6973C242.43 94.5527 242.402 94.4219 242.348 94.3047C242.293 94.1914 242.219 94.0957 242.125 94.0176C242.031 93.9395 241.92 93.8789 241.791 93.8359C241.666 93.793 241.531 93.7715 241.387 93.7715H241.018C240.873 93.7715 240.736 93.793 240.607 93.8359C240.482 93.8789 240.373 93.9395 240.279 94.0176C240.186 94.0957 240.111 94.1914 240.057 94.3047C240.002 94.4219 239.975 94.5527 239.975 94.6973V94.791C239.975 94.9355 240.002 95.0645 240.057 95.1777C240.111 95.291 240.186 95.3867 240.279 95.4648C240.373 95.5469 240.482 95.6094 240.607 95.6523C240.736 95.6953 240.873 95.7168 241.018 95.7168H241.387C241.531 95.7168 241.666 95.6953 241.791 95.6523C241.92 95.6094 242.031 95.5469 242.125 95.4648C242.219 95.3867 242.293 95.291 242.348 95.1777C242.402 95.0645 242.43 94.9355 242.43 94.791V94.6973Z" fill="#7FD6DC"/>
<path d="M73 55C73 62 64 68 64 68C64 68 55 62 55 55C55 52.6131 55.9482 50.3239 57.636 48.636C59.3239 46.9482 61.6131 46 64 46C66.3869 46 68.6761 46.9482 70.364 48.636C72.0518 50.3239 73 52.6131 73 55Z" stroke="#936D2A" stroke-width="2" stroke-linecap="round" stroke-linejoin="round"/>
<path d="M64 58C65.6569 58 67 56.6569 67 55C67 53.3431 65.6569 52 64 52C62.3431 52 61 53.3431 61 55C61 56.6569 62.3431 58 64 58Z" stroke="#936D2A" stroke-width="2" stroke-linecap="round" stroke-linejoin="round"/>
<path d="M153 51H135C133.895 51 133 51.8954 133 53V65C133 66.1046 133.895 67 135 67H153C154.105 67 155 66.1046 155 65V53C155 51.8954 154.105 51 153 51Z" stroke="#C84971" stroke-width="2" stroke-linecap="round" stroke-linejoin="round"/>
<path d="M133 57H155" stroke="#C84971" stroke-width="2" stroke-linecap="round" stroke-linejoin="round"/>
<path d="M228 50H213V63H228V50Z" stroke="#2ACCD4" stroke-width="2" stroke-linecap="round" stroke-linejoin="round"/>
<path d="M228 55H232L235 58V63H228V55Z" stroke="#2ACCD4" stroke-width="2" stroke-linecap="round" stroke-linejoin="round"/>
<path d="M217.5 68C218.881 68 220 66.8807 220 65.5C220 64.1193 218.881 63 217.5 63C216.119 63 215 64.1193 215 65.5C215 66.8807 216.119 68 217.5 68Z" stroke="#2ACCD4" stroke-width="2" stroke-linecap="round" stroke-linejoin="round"/>
<path d="M230.5 68C231.881 68 233 66.8807 233 65.5C233 64.1193 231.881 63 230.5 63C229.119 63 228 64.1193 228 65.5C228 66.8807 229.119 68 230.5 68Z" stroke="#2ACCD4" stroke-width="2" stroke-linecap="round" stroke-linejoin="round"/>
</svg>
